<?xml version="1.0" encoding="utf-8"?>
<!-- Generator: Adobe Illustrator 15.0.0, SVG Export Plug-In  -->
<!DOCTYPE svg PUBLIC "-//W3C//DTD SVG 1.0//EN" "http://www.w3.org/TR/2001/REC-SVG-20010904/DTD/svg10.dtd" [
	<!ENTITY ns_flows "http://ns.adobe.com/Flows/1.0/">
]>
<svg version="1.0"
	 xmlns="http://www.w3.org/2000/svg" xmlns:xlink="http://www.w3.org/1999/xlink" xmlns:a="http://ns.adobe.com/AdobeSVGViewerExtensions/3.0/"
	 x="0px" y="0px" width="450px" height="73px" viewBox="205 416.3 450 73" enable-background="new 205 416.3 450 73"
	 xml:space="preserve">
<defs>
</defs>
<path fill="#F5F5F5" d="M305.3,456l6,1.1c-1.2,4.1-3,7.2-5.4,9.3c-2.4,2.1-5.1,3.1-8.2,3.1c-3.5,0-6.3-1.3-8.3-3.8
	s-3.1-6.4-3.1-11.5c0-4.4,0.7-8.2,2.2-11.6s3.4-5.8,5.7-7.4c2.3-1.6,4.8-2.4,7.5-2.4c3,0,5.5,1,7.6,3s3.2,4.8,3.6,8.5l-5.8,0.7
	c-0.3-2.2-1-3.7-1.9-4.6c-0.9-0.9-2.1-1.3-3.6-1.3c-1.5,0-2.9,0.5-4.3,1.6c-1.4,1.1-2.6,2.9-3.6,5.4c-1,2.5-1.5,5.4-1.5,8.4
	c0,2.9,0.6,5.1,1.7,6.6c1.1,1.5,2.5,2.3,4.1,2.3c1.5,0,3-0.6,4.3-1.8C303.6,460.3,304.6,458.5,305.3,456z"/>
<path fill="#F5F5F5" d="M317.5,443.1h5.4l-0.9,5c2-3.7,4.2-5.6,6.5-5.6c0.8,0,1.7,0.2,2.7,0.7l-2.2,5.7c-0.5-0.2-1.1-0.3-1.6-0.3
	c-0.9,0-1.7,0.3-2.5,0.9c-1.2,0.9-2.1,2.1-2.8,3.6c-0.6,1.5-1.3,4-1.9,7.7l-1.4,8.1h-5.7L317.5,443.1z"/>
<path fill="#F5F5F5" d="M334,443.1h5.7l1.4,12.8c0.4,3.3,0.6,5.6,0.6,6.9c0.7-2.7,1.8-5.4,3.1-8.3l5.1-11.4h6l-13.1,28.3
	c-1.2,2.7-2.2,4.4-2.8,5.3c-0.7,0.9-1.4,1.6-2.2,2c-0.8,0.4-1.8,0.6-2.8,0.6c-1.2,0-2.6-0.3-4.1-0.8l0.5-5.2c0.7,0.2,1.3,0.4,2,0.4
	c1.7,0,3.2-1.6,4.3-4.9L334,443.1z"/>
<path fill="#F5F5F5" d="M359.1,443.1h5.4l-0.5,2.6c1.2-1.2,2.3-2.1,3.3-2.5c1-0.5,2-0.7,3.1-0.7c2.2,0,3.9,0.9,5.2,2.8s2,4.6,2,8.3
	c0,4.7-1.2,8.7-3.5,11.9c-1.9,2.6-4.2,4-6.9,4c-2.7,0-4.8-1.4-6.2-4.1l-2.3,13.3H353L359.1,443.1z M362.6,457.9c0,2,0.4,3.6,1.2,4.7
	c0.8,1.1,1.7,1.7,2.7,1.7c0.8,0,1.7-0.4,2.5-1.1c0.8-0.7,1.5-2,2.2-3.9s1-3.8,1-5.9c0-1.9-0.4-3.4-1.1-4.4c-0.7-1-1.7-1.5-2.8-1.5
	c-0.9,0-1.7,0.3-2.5,1c-0.8,0.7-1.5,2-2.2,3.8C362.9,454.1,362.6,455.9,362.6,457.9z"/>
<path fill="#F5F5F5" d="M381,448.2l0.9-5.2h3l0.7-4.1l6.7-4.9l-1.6,9h3.6l-0.9,5.2h-3.7l-2,10.8c-0.3,1.9-0.5,3.1-0.5,3.4
	c0,0.6,0.2,1,0.5,1.3c0.3,0.3,0.8,0.4,1.6,0.4c0.2,0,0.9-0.1,2-0.2l-0.9,5.2c-1,0.2-2,0.3-3.1,0.3c-2,0-3.5-0.5-4.5-1.4
	c-1-0.9-1.5-2.2-1.5-4c0-0.8,0.3-2.6,0.8-5.5l1.9-10.4H381z"/>
<path fill="#F5F5F5" d="M392.7,461.6l5.5-1.1c0.5,1.5,1.1,2.5,1.8,3s1.7,0.9,3,0.9c1.2,0,2.1-0.3,2.9-0.8c0.7-0.6,1.1-1.2,1.1-2
	c0-0.5-0.2-1-0.5-1.3c-0.3-0.3-1.1-0.8-2.3-1.2c-3.4-1.4-5.5-2.5-6.4-3.3c-1.3-1.3-2-2.9-2-5c0-2.4,0.9-4.4,2.6-6
	c1.7-1.6,4.1-2.4,7-2.4c5,0,8,2.2,8.8,6.7l-5.3,1.1c-0.6-2-2.1-3.1-4.4-3.1c-1.1,0-1.9,0.2-2.5,0.7s-0.8,1-0.8,1.7
	c0,0.6,0.2,1.1,0.7,1.5c0.3,0.3,1.4,0.8,3.4,1.5c2.7,1,4.6,1.9,5.5,2.8c1.4,1.3,2.1,3,2.1,4.9c0,2.6-0.9,4.8-2.6,6.5
	c-1.8,1.7-4.1,2.6-7,2.6C397.4,469.4,393.9,466.8,392.7,461.6z"/>
<path fill="#F5F5F5" d="M421.8,468.8h-5.7l6.1-35.6h5.7l-2.2,12.7c1.4-1.3,2.6-2.2,3.7-2.7s2.3-0.8,3.5-0.8c1.7,0,3,0.6,4,1.7
	s1.5,2.8,1.5,4.8c0,1-0.2,2.6-0.6,4.7l-2.6,15.1h-5.7l2.6-15.4c0.3-1.7,0.4-2.7,0.4-3.2c0-0.9-0.2-1.6-0.7-2.1
	c-0.5-0.5-1-0.8-1.8-0.8c-1,0-1.9,0.4-2.7,1.2c-1.2,1.1-2.1,2.4-2.6,4c-0.3,0.9-0.8,2.9-1.3,6L421.8,468.8z"/>
<path fill="#F5F5F5" d="M449,450.4l-5.6-0.6c0.7-2.4,1.8-4.2,3.5-5.4c1.6-1.2,3.7-1.9,6.3-1.9c2.6,0,4.6,0.6,5.9,1.9
	c1.4,1.3,2.1,3,2.1,5.1c0,0.7-0.1,1.5-0.2,2.4c-0.1,0.8-0.6,3.1-1.5,6.9c-0.7,3.1-1.1,5.2-1.1,6.4c0,1.1,0.2,2.4,0.6,3.7h-5.7
	c-0.2-0.9-0.4-1.9-0.4-2.9c-0.8,1.1-1.7,2-2.8,2.6c-1.1,0.6-2.1,0.9-3.1,0.9c-1.7,0-3-0.7-4.2-2c-1.1-1.4-1.7-3.2-1.7-5.4
	c0-2.6,0.7-4.6,2-6c1.3-1.4,3.5-2.3,6.6-2.5c2.7-0.3,4.5-0.6,5.5-1c0.3-1,0.5-1.8,0.5-2.4c0-0.8-0.3-1.4-0.8-1.9s-1.3-0.7-2.2-0.7
	C450.7,447.4,449.5,448.4,449,450.4z M454.3,456.8c-0.3,0.1-0.8,0.2-1.4,0.3c-2.6,0.4-4.3,0.9-5.2,1.6s-1.2,1.5-1.2,2.6
	c0,0.9,0.2,1.5,0.7,2.1c0.5,0.5,1.1,0.8,1.8,0.8c0.8,0,1.5-0.2,2.2-0.7c0.7-0.4,1.2-1.1,1.7-1.9c0.4-0.8,0.8-2.1,1.2-3.9
	L454.3,456.8z"/>
<path fill="#F5F5F5" d="M467.6,443.1h5.4l-0.9,5c2-3.7,4.2-5.6,6.5-5.6c0.8,0,1.7,0.2,2.7,0.7l-2.2,5.7c-0.5-0.2-1.1-0.3-1.6-0.3
	c-0.9,0-1.7,0.3-2.5,0.9c-1.2,0.9-2.1,2.1-2.8,3.6c-0.6,1.5-1.3,4-1.9,7.7l-1.4,8.1h-5.7L467.6,443.1z"/>
<path fill="#F5F5F5" d="M500.1,458.1h-14.3v0.7c0,1.7,0.4,3.1,1.2,4.2c0.8,1,1.8,1.6,2.9,1.6c1.9,0,3.4-1.2,4.4-3.6l5.1,1
	c-1,2.5-2.3,4.4-4,5.6s-3.5,1.9-5.6,1.9c-2.8,0-5-1.1-6.9-3.2c-1.8-2.1-2.7-5.1-2.7-8.7c0-4,1-7.5,3.1-10.5s5-4.5,8.7-4.5
	c2.5,0,4.5,1,6.1,2.9c1.6,1.9,2.3,4.6,2.3,8.2C500.4,455.3,500.3,456.8,500.1,458.1z M495.2,453.9l0-0.7c0-2-0.4-3.4-1.1-4.3
	c-0.7-0.9-1.7-1.4-2.8-1.4c-1.2,0-2.2,0.5-3.2,1.6c-0.9,1.1-1.6,2.7-1.9,4.8H495.2z"/>
<path fill="#F5F5F5" d="M502.9,468.8l0.8-5h4.1l-0.8,5H502.9z"/>
<path fill="#F5F5F5" d="M528.7,460.1l3.5,0.4c-0.6,2.5-1.9,4.7-4.1,6.6c-1.8,1.6-3.7,2.4-5.9,2.4c-1.5,0-2.9-0.4-4.2-1.3
	c-1.3-0.8-2.3-2.1-3-3.7c-0.7-1.7-1.1-3.6-1.1-5.9c0-3,0.6-5.8,1.7-8.5c1.1-2.6,2.5-4.5,4.2-5.7c1.7-1.2,3.4-1.8,5.4-1.8
	c2.4,0,4.4,0.9,6,2.8c1.5,1.9,2.3,4.5,2.3,7.9c0,1.3-0.1,2.6-0.3,3.9h-15.6c0,0.5-0.1,1-0.1,1.4c0,2.4,0.5,4.3,1.4,5.5
	c0.9,1.3,2,1.9,3.3,1.9c1.2,0,2.5-0.5,3.6-1.5C527.1,463.3,528.1,461.9,528.7,460.1z M518.2,453.7h11.9v-0.9c0-2.3-0.5-4-1.4-5.2
	c-0.9-1.2-2.1-1.7-3.5-1.7c-1.5,0-2.9,0.6-4.2,1.9C519.8,449.1,518.9,451.1,518.2,453.7z"/>
<path fill="#F5F5F5" d="M534.5,468.8l9.2-13.1l-5.3-12.7h4l1.8,4.6c0.7,1.7,1.3,3.4,1.8,4.9l6.1-9.5h4.4l-8.9,13.1l5.3,12.7h-4
	l-2.1-5.2c-0.5-1.2-1-2.6-1.6-4.2l-6.3,9.4H534.5z"/>
<path fill="#F5F5F5" d="M554.5,478.7l6.1-35.7h3.4l-0.6,3.6c1.3-1.6,2.4-2.7,3.4-3.3c1-0.6,2-0.9,3-0.9c1.9,0,3.6,0.9,4.9,2.6
	s2,4.3,2,7.7c0,3.2-0.5,6.1-1.6,8.8s-2.5,4.7-4.3,6.1c-1.4,1.1-2.8,1.7-4.4,1.7c-2.5,0-4.5-1.6-5.9-4.7l-2.4,14H554.5z M561.6,459.1
	c0,2.2,0.4,3.8,1.3,5c0.9,1.1,2,1.7,3.3,1.7c1,0,2-0.3,2.8-1c1.1-1,2.1-2.7,2.9-5s1.2-4.6,1.2-7c0-2.2-0.4-3.9-1.3-5.1
	c-0.9-1.2-1.9-1.8-3.2-1.8c-1,0-2,0.4-3,1.3c-1,0.9-1.9,2.5-2.8,4.7S561.6,456.7,561.6,459.1z"/>
<path fill="#F5F5F5" d="M579,468.8l4.4-25.8h3.2l-0.9,5.3c2.1-3.9,4.2-5.8,6.4-5.8c0.7,0,1.6,0.3,2.7,0.9l-1.5,4.1
	c-0.6-0.5-1.3-0.8-2-0.8c-1.3,0-2.6,0.9-4,2.6c-1.3,1.7-2.3,4.8-3.1,9.2l-1.8,10.3H579z"/>
<path fill="#F5F5F5" d="M608,460.1l3.5,0.4c-0.6,2.5-1.9,4.7-4.1,6.6c-1.8,1.6-3.7,2.4-5.9,2.4c-1.5,0-2.9-0.4-4.2-1.3
	c-1.3-0.8-2.3-2.1-3-3.7c-0.7-1.7-1.1-3.6-1.1-5.9c0-3,0.6-5.8,1.7-8.5c1.1-2.6,2.5-4.5,4.2-5.7c1.7-1.2,3.4-1.8,5.4-1.8
	c2.4,0,4.4,0.9,6,2.8c1.5,1.9,2.3,4.5,2.3,7.9c0,1.3-0.1,2.6-0.3,3.9h-15.6c0,0.5-0.1,1-0.1,1.4c0,2.4,0.5,4.3,1.4,5.5
	c0.9,1.3,2,1.9,3.3,1.9c1.2,0,2.5-0.5,3.6-1.5C606.4,463.3,607.4,461.9,608,460.1z M597.5,453.7h11.9v-0.9c0-2.3-0.5-4-1.4-5.2
	c-0.9-1.2-2.1-1.7-3.5-1.7c-1.5,0-2.9,0.6-4.2,1.9C599.1,449.1,598.2,451.1,597.5,453.7z"/>
<path fill="#F5F5F5" d="M615.4,460l3.6-0.3c0,2.1,0.4,3.7,1.4,4.7c0.9,1,2.2,1.6,3.8,1.6c1.5,0,2.6-0.4,3.5-1.1s1.3-1.7,1.3-2.8
	c0-0.8-0.3-1.6-0.8-2.2c-0.5-0.7-1.7-1.5-3.6-2.4c-2.1-1.1-3.5-1.9-4.2-2.5c-0.7-0.6-1.2-1.3-1.6-2.2s-0.6-1.8-0.6-2.9
	c0-2.2,0.7-3.9,2.1-5.3c1.4-1.4,3.2-2.1,5.5-2.1c2.5,0,4.5,0.7,5.9,2.1c1.5,1.4,2.2,3.4,2.3,6l-3.5,0.3c0-1.6-0.5-2.9-1.4-3.7
	s-2.1-1.3-3.6-1.3c-1.2,0-2.1,0.3-2.8,1c-0.7,0.7-1.1,1.4-1.1,2.3c0,0.7,0.2,1.4,0.7,1.9c0.4,0.6,1.5,1.3,3.3,2.2
	c2.7,1.4,4.5,2.6,5.2,3.4c1.1,1.3,1.7,3,1.7,4.9c0,2.1-0.8,4-2.3,5.5c-1.5,1.5-3.6,2.3-6.3,2.3c-2.7,0-4.8-0.8-6.4-2.3
	c-1.5-1.6-2.3-3.7-2.3-6.6V460z"/>
<path fill="#F5F5F5" d="M635.8,460l3.6-0.3c0,2.1,0.4,3.7,1.4,4.7c0.9,1,2.2,1.6,3.8,1.6c1.5,0,2.6-0.4,3.5-1.1s1.3-1.7,1.3-2.8
	c0-0.8-0.3-1.6-0.8-2.2c-0.5-0.7-1.7-1.5-3.6-2.4c-2.1-1.1-3.5-1.9-4.2-2.5c-0.7-0.6-1.2-1.3-1.6-2.2s-0.6-1.8-0.6-2.9
	c0-2.2,0.7-3.9,2.1-5.3c1.4-1.4,3.2-2.1,5.5-2.1c2.5,0,4.5,0.7,5.9,2.1c1.5,1.4,2.2,3.4,2.3,6l-3.5,0.3c0-1.6-0.5-2.9-1.4-3.7
	s-2.1-1.3-3.6-1.3c-1.2,0-2.1,0.3-2.8,1c-0.7,0.7-1.1,1.4-1.1,2.3c0,0.7,0.2,1.4,0.7,1.9c0.4,0.6,1.5,1.3,3.3,2.2
	c2.7,1.4,4.5,2.6,5.2,3.4c1.1,1.3,1.7,3,1.7,4.9c0,2.1-0.8,4-2.3,5.5c-1.5,1.5-3.6,2.3-6.3,2.3c-2.7,0-4.8-0.8-6.4-2.3
	c-1.5-1.6-2.3-3.7-2.3-6.6V460z"/>
<g>
	<defs>
		<rect id="SVGID_1_" width="841.9" height="595.3"/>
	</defs>
	<clipPath id="SVGID_2_">
		<use xlink:href="#SVGID_1_"  overflow="visible"/>
	</clipPath>
	<path clip-path="url(#SVGID_2_)" fill="#B1B1B1" d="M278.2,452.7c0,20.1-16.3,36.3-36.3,36.3c-20.1,0-36.3-16.3-36.3-36.3
		s16.3-36.3,36.3-36.3C261.9,416.3,278.2,432.6,278.2,452.7"/>
	<path clip-path="url(#SVGID_2_)" fill="#434144" d="M274.3,452.7c0,17.9-14.5,32.4-32.4,32.4c-17.9,0-32.4-14.5-32.4-32.4
		c0-17.9,14.5-32.4,32.4-32.4C259.8,420.3,274.3,434.8,274.3,452.7"/>
	<path clip-path="url(#SVGID_2_)" fill="none" stroke="#FFFFFF" stroke-width="7" d="M253.7,465c5.2-0.5,9.3-4.9,9.2-10.2
		c-0.1-5.1-4-9.3-9-9.8c-1.1-5.3-5.9-9.3-11.6-9.2c-5.6,0.1-10.2,4.2-11.2,9.6c-5.5,0.2-9.8,4.7-9.7,10.2c0.1,6.3,5.9,9.6,12.2,9.5
		C237.4,464.9,249.2,465.1,253.7,465z"/>
	<polygon clip-path="url(#SVGID_2_)" fill="#F29100" points="242.2,447.7 231.6,462.8 237.8,462.8 242.1,475 247,462.8 252.7,462.8 
			"/>
</g>
</svg>
