<?xml version="1.0" encoding="utf-8"?>
<!-- Generator: Adobe Illustrator 15.0.0, SVG Export Plug-In  -->
<!DOCTYPE svg PUBLIC "-//W3C//DTD SVG 1.1 Tiny//EN" "http://www.w3.org/Graphics/SVG/1.1/DTD/svg11-tiny.dtd" [
	<!ENTITY ns_flows "http://ns.adobe.com/Flows/1.0/">
]>
<svg version="1.1" baseProfile="tiny"
	 xmlns="http://www.w3.org/2000/svg" xmlns:xlink="http://www.w3.org/1999/xlink" xmlns:a="http://ns.adobe.com/AdobeSVGViewerExtensions/3.0/"
	 x="0px" y="0px" width="251px" height="72px" viewBox="-0.516 -0.305 251 72" xml:space="preserve">
<defs>
</defs>
<path fill="#424144" d="M246.493,13.507c0.992,0,1.826,0.345,2.498,1.034C249.664,15.23,250,16.037,250,16.96
	c0,0.643-0.166,1.234-0.498,1.774c-0.333,0.54-0.769,0.953-1.308,1.242c-0.536,0.288-1.104,0.432-1.701,0.432
	c-0.992,0-1.825-0.343-2.497-1.031c-0.671-0.688-1.009-1.494-1.009-2.417c0-0.647,0.167-1.24,0.499-1.779
	c0.333-0.54,0.768-0.954,1.306-1.242C245.33,13.651,245.898,13.507,246.493,13.507z M246.493,14.079
	c-0.834,0-1.539,0.298-2.117,0.897c-0.536,0.554-0.805,1.216-0.805,1.985c0,0.826,0.307,1.523,0.917,2.09
	c0.567,0.525,1.236,0.788,2.005,0.788c0.831,0,1.537-0.299,2.119-0.897c0.536-0.552,0.804-1.212,0.804-1.98
	c0-0.827-0.305-1.523-0.917-2.09C247.933,14.342,247.264,14.079,246.493,14.079z M244.954,18.868v-3.716h1.302
	c0.446,0,0.763,0.034,0.951,0.101c0.189,0.067,0.345,0.183,0.471,0.347c0.124,0.165,0.186,0.35,0.186,0.558
	c0,0.286-0.099,0.525-0.3,0.72c-0.201,0.194-0.458,0.303-0.772,0.327c0.14,0.058,0.251,0.128,0.335,0.212
	c0.159,0.16,0.339,0.401,0.543,0.724l0.45,0.728h-0.736l-0.34-0.585c-0.256-0.448-0.461-0.733-0.618-0.857
	c-0.115-0.093-0.283-0.139-0.497-0.139h-0.362v1.581H244.954z M245.565,16.775h0.741c0.332,0,0.568-0.048,0.704-0.145
	c0.139-0.096,0.208-0.237,0.208-0.422c0-0.119-0.034-0.223-0.105-0.312c-0.069-0.088-0.159-0.15-0.269-0.187
	c-0.108-0.037-0.306-0.055-0.589-0.055h-0.69V16.775z"/>
<path fill="#424144" stroke="#424144" stroke-linecap="square" d="M130.628,67.271V56.032h1.832l2.187,7.958l0.437,1.664
	c0.107-0.414,0.271-1.015,0.491-1.802l2.209-7.82h1.64v11.239h-1.172v-9.399l-2.686,9.399h-1.095l-2.67-9.562v9.562H130.628z"/>
<path fill="#424144" stroke="#424144" stroke-linecap="square" d="M145.568,66.268c-0.378,0.394-0.771,0.689-1.18,0.89
	c-0.409,0.198-0.833,0.299-1.272,0.299c-0.695,0-1.249-0.21-1.663-0.629s-0.621-0.984-0.621-1.694c0-0.471,0.097-0.887,0.292-1.25
	c0.194-0.362,0.459-0.646,0.796-0.851c0.337-0.204,0.848-0.355,1.533-0.452c0.919-0.136,1.593-0.297,2.022-0.483l0.008-0.353
	c0-0.558-0.1-0.948-0.299-1.173c-0.281-0.327-0.713-0.491-1.295-0.491c-0.526,0-0.919,0.109-1.18,0.327
	c-0.26,0.219-0.452,0.629-0.574,1.229l-1.111-0.185c0.159-0.874,0.479-1.51,0.962-1.908c0.482-0.399,1.173-0.599,2.072-0.599
	c0.7,0,1.249,0.132,1.647,0.396c0.398,0.263,0.65,0.589,0.755,0.978c0.104,0.388,0.157,0.955,0.157,1.701v1.841
	c0,1.287,0.024,2.1,0.073,2.434c0.049,0.335,0.144,0.661,0.287,0.978h-1.18C145.68,66.99,145.604,66.656,145.568,66.268z
	 M145.476,63.186c-0.414,0.204-1.029,0.378-1.846,0.521c-0.475,0.081-0.808,0.175-0.997,0.279s-0.335,0.253-0.44,0.445
	c-0.104,0.191-0.157,0.412-0.157,0.662c0,0.389,0.12,0.699,0.36,0.932c0.24,0.233,0.572,0.35,0.996,0.35
	c0.403,0,0.77-0.104,1.1-0.314c0.329-0.21,0.576-0.489,0.739-0.84c0.164-0.35,0.245-0.859,0.245-1.529V63.186z"/>
<path fill="#424144" stroke="#424144" stroke-linecap="square" d="M148.403,67.271V56.032h1.126v6.42l2.685-3.322h1.464
	l-2.552,3.023l2.805,5.118h-1.387l-2.217-4.173l-0.798,0.945v3.228H148.403z"/>
<path fill="#424144" stroke="#424144" stroke-linecap="square" d="M154.815,57.619v-1.587h1.127v1.587H154.815z M154.815,67.271
	V59.13h1.127v8.142H154.815z"/>
<path fill="#424144" stroke="#424144" stroke-linecap="square" d="M157.674,67.271V59.13h1.019v1.149
	c0.245-0.447,0.545-0.781,0.899-1.002c0.354-0.222,0.761-0.332,1.22-0.332c0.356,0,0.687,0.07,0.99,0.211
	c0.303,0.141,0.548,0.325,0.734,0.553c0.186,0.227,0.325,0.522,0.417,0.885c0.092,0.363,0.138,0.92,0.138,1.672v5.006h-1.127v-4.958
	c0-0.599-0.051-1.036-0.152-1.313c-0.103-0.276-0.263-0.49-0.479-0.641c-0.217-0.151-0.469-0.227-0.755-0.227
	c-0.541,0-0.973,0.202-1.295,0.606c-0.321,0.404-0.482,1.098-0.482,2.08v4.451H157.674z"/>
<path fill="#424144" stroke="#424144" stroke-linecap="square" d="M164.607,67.946l1.104,0.199c0.051,0.438,0.204,0.763,0.459,0.976
	c0.256,0.214,0.61,0.32,1.065,0.32c0.495,0,0.89-0.119,1.184-0.356c0.294-0.238,0.494-0.592,0.602-1.063
	c0.066-0.286,0.1-0.889,0.1-1.81c-0.245,0.351-0.521,0.614-0.827,0.792s-0.646,0.267-1.02,0.267c-0.797,0-1.458-0.337-1.984-1.012
	c-0.603-0.777-0.904-1.817-0.904-3.12c0-0.874,0.134-1.639,0.399-2.293c0.265-0.654,0.613-1.135,1.046-1.441
	c0.431-0.307,0.915-0.46,1.451-0.46c0.394,0,0.752,0.097,1.076,0.29c0.324,0.192,0.612,0.481,0.862,0.868V59.13h1.042v7.038
	c0,1.252-0.102,2.146-0.307,2.679c-0.204,0.534-0.539,0.956-1.003,1.266c-0.466,0.309-1.024,0.464-1.679,0.464
	c-0.863,0-1.527-0.232-1.992-0.698C164.817,69.413,164.592,68.77,164.607,67.946z M165.542,63.055c0,1.071,0.177,1.853,0.53,2.345
	s0.785,0.737,1.297,0.737c0.513,0,0.947-0.24,1.306-0.723c0.358-0.481,0.537-1.247,0.537-2.298c0-1.024-0.185-1.787-0.553-2.286
	c-0.368-0.5-0.816-0.75-1.344-0.75c-0.471,0-0.884,0.25-1.239,0.75C165.72,61.329,165.542,62.071,165.542,63.055z"/>
<path fill="#424144" stroke="#424144" stroke-linecap="square" d="M180.123,64.649l1.164,0.177
	c-0.194,0.869-0.545,1.524-1.054,1.967c-0.508,0.441-1.138,0.663-1.889,0.663c-0.944,0-1.71-0.359-2.295-1.077
	c-0.584-0.719-0.877-1.755-0.877-3.109c0-1.405,0.295-2.478,0.885-3.216s1.337-1.108,2.241-1.108c0.863,0,1.584,0.363,2.161,1.089
	s0.865,1.776,0.865,3.151l-0.008,0.368h-4.979c0.046,0.914,0.258,1.604,0.636,2.069c0.378,0.466,0.838,0.698,1.379,0.698
	C179.2,66.321,179.79,65.764,180.123,64.649z M176.406,62.419h3.724c-0.051-0.706-0.201-1.232-0.452-1.58
	c-0.362-0.506-0.824-0.759-1.387-0.759c-0.505,0-0.937,0.211-1.294,0.633C176.639,61.134,176.442,61.703,176.406,62.419z"/>
<path fill="#424144" stroke="#424144" stroke-linecap="square" d="M182.291,63.898v-1.388h3.471v1.388H182.291z"/>
<path fill="#424144" stroke="#424144" stroke-linecap="square" d="M187.011,67.271V59.13h1.011v1.135
	c0.225-0.422,0.513-0.747,0.864-0.976c0.353-0.229,0.737-0.344,1.155-0.344c0.469,0,0.866,0.121,1.189,0.362
	c0.324,0.242,0.555,0.594,0.692,1.057c0.267-0.473,0.573-0.827,0.919-1.064c0.346-0.236,0.729-0.354,1.149-0.354
	c0.641,0,1.146,0.218,1.515,0.652c0.368,0.435,0.553,1.129,0.553,2.085v5.589h-1.126v-5.134c0-0.584-0.042-0.997-0.127-1.24
	s-0.222-0.431-0.412-0.563c-0.19-0.134-0.403-0.2-0.64-0.2c-0.487,0-0.886,0.193-1.194,0.58c-0.308,0.386-0.462,0.993-0.462,1.822
	v4.735h-1.126v-5.295c0-0.676-0.104-1.151-0.311-1.428c-0.206-0.276-0.491-0.415-0.854-0.415c-0.516,0-0.923,0.209-1.222,0.626
	s-0.448,1.178-0.448,2.283v4.229H187.011z"/>
<path fill="#424144" stroke="#424144" stroke-linecap="square" d="M202.065,66.268c-0.378,0.394-0.771,0.689-1.18,0.89
	c-0.408,0.198-0.833,0.299-1.271,0.299c-0.695,0-1.249-0.21-1.663-0.629c-0.413-0.419-0.62-0.984-0.62-1.694
	c0-0.471,0.097-0.887,0.291-1.25c0.194-0.362,0.46-0.646,0.797-0.851s0.848-0.355,1.532-0.452c0.919-0.136,1.594-0.297,2.022-0.483
	l0.008-0.353c0-0.558-0.1-0.948-0.299-1.173c-0.281-0.327-0.713-0.491-1.295-0.491c-0.525,0-0.919,0.109-1.18,0.327
	c-0.261,0.219-0.452,0.629-0.574,1.229l-1.111-0.185c0.158-0.874,0.479-1.51,0.962-1.908c0.482-0.399,1.173-0.599,2.072-0.599
	c0.699,0,1.248,0.132,1.647,0.396c0.398,0.263,0.649,0.589,0.755,0.978c0.104,0.388,0.156,0.955,0.156,1.701v1.841
	c0,1.287,0.024,2.1,0.073,2.434c0.049,0.335,0.144,0.661,0.287,0.978h-1.18C202.178,66.99,202.102,66.656,202.065,66.268z
	 M201.974,63.186c-0.413,0.204-1.029,0.378-1.846,0.521c-0.476,0.081-0.808,0.175-0.997,0.279c-0.188,0.104-0.335,0.253-0.44,0.445
	c-0.104,0.191-0.157,0.412-0.157,0.662c0,0.389,0.12,0.699,0.36,0.932c0.24,0.233,0.572,0.35,0.996,0.35
	c0.403,0,0.771-0.104,1.1-0.314s0.576-0.489,0.739-0.84c0.164-0.35,0.245-0.859,0.245-1.529V63.186z"/>
<path fill="#424144" stroke="#424144" stroke-linecap="square" d="M204.878,57.619v-1.587h1.126v1.587H204.878z M204.878,67.271
	V59.13h1.126v8.142H204.878z"/>
<path fill="#424144" stroke="#424144" stroke-linecap="square" d="M207.697,67.271V56.032h1.126v11.239H207.697z"/>
<path fill="#424144" stroke="#424144" stroke-linecap="square" d="M215.206,67.271h-1.05V56.032h1.134v4.01
	c0.24-0.368,0.512-0.643,0.815-0.824c0.305-0.182,0.643-0.272,1.016-0.272c0.521,0,0.995,0.156,1.421,0.468
	c0.427,0.312,0.768,0.785,1.023,1.418c0.255,0.635,0.383,1.403,0.383,2.309c0,1.38-0.289,2.444-0.867,3.192
	c-0.578,0.749-1.253,1.124-2.025,1.124c-0.39,0-0.738-0.102-1.048-0.304c-0.31-0.201-0.577-0.502-0.802-0.9V67.271z M215.188,63.14
	c0,0.843,0.077,1.475,0.23,1.894c0.154,0.419,0.371,0.738,0.653,0.958c0.281,0.22,0.594,0.33,0.938,0.33
	c0.466,0,0.879-0.263,1.24-0.786c0.361-0.524,0.541-1.308,0.541-2.35c0-1.068-0.174-1.853-0.522-2.354
	c-0.348-0.5-0.775-0.751-1.282-0.751c-0.466,0-0.883,0.263-1.249,0.786C215.372,61.391,215.188,62.147,215.188,63.14z"/>
<path fill="#424144" stroke="#424144" stroke-linecap="square" d="M225.887,64.649l1.164,0.177
	c-0.194,0.869-0.545,1.524-1.054,1.967c-0.508,0.441-1.138,0.663-1.889,0.663c-0.945,0-1.71-0.359-2.295-1.077
	c-0.585-0.719-0.877-1.755-0.877-3.109c0-1.405,0.295-2.478,0.885-3.216s1.337-1.108,2.241-1.108c0.863,0,1.584,0.363,2.161,1.089
	s0.865,1.776,0.865,3.151l-0.008,0.368h-4.979c0.046,0.914,0.258,1.604,0.636,2.069c0.378,0.466,0.838,0.698,1.379,0.698
	C224.964,66.321,225.554,65.764,225.887,64.649z M222.17,62.419h3.724c-0.051-0.706-0.201-1.232-0.452-1.58
	c-0.362-0.506-0.824-0.759-1.387-0.759c-0.505,0-0.938,0.211-1.295,0.633C222.402,61.134,222.206,61.703,222.17,62.419z"/>
<path fill="#424144" stroke="#424144" stroke-linecap="square" d="M230.997,66.037l0.152,1.219
	c-0.312,0.082-0.592,0.123-0.843,0.123c-0.393,0-0.71-0.078-0.95-0.233c-0.239-0.156-0.404-0.369-0.494-0.641
	c-0.089-0.271-0.134-0.81-0.134-1.618v-4.684h-0.827V59.13h0.827v-2.017l1.127-0.828v2.845h1.142v1.073h-1.142v4.761
	c0,0.439,0.033,0.724,0.099,0.852c0.098,0.184,0.278,0.275,0.544,0.275C230.626,66.091,230.792,66.073,230.997,66.037z"/>
<path fill="#424144" stroke="#424144" stroke-linecap="square" d="M234.574,66.037l0.153,1.219
	c-0.312,0.082-0.593,0.123-0.843,0.123c-0.394,0-0.71-0.078-0.95-0.233c-0.24-0.156-0.404-0.369-0.494-0.641
	c-0.089-0.271-0.134-0.81-0.134-1.618v-4.684h-0.827V59.13h0.827v-2.017l1.126-0.828v2.845h1.142v1.073h-1.142v4.761
	c0,0.439,0.033,0.724,0.1,0.852c0.098,0.184,0.278,0.275,0.544,0.275C234.204,66.091,234.37,66.073,234.574,66.037z"/>
<path fill="#424144" stroke="#424144" stroke-linecap="square" d="M240.198,64.649l1.165,0.177
	c-0.194,0.869-0.546,1.524-1.054,1.967c-0.509,0.441-1.138,0.663-1.889,0.663c-0.945,0-1.71-0.359-2.295-1.077
	c-0.585-0.719-0.877-1.755-0.877-3.109c0-1.405,0.295-2.478,0.885-3.216s1.337-1.108,2.241-1.108c0.863,0,1.583,0.363,2.16,1.089
	s0.866,1.776,0.866,3.151l-0.008,0.368h-4.98c0.046,0.914,0.259,1.604,0.636,2.069c0.379,0.466,0.838,0.698,1.38,0.698
	C239.276,66.321,239.866,65.764,240.198,64.649z M236.482,62.419h3.724c-0.051-0.706-0.202-1.232-0.452-1.58
	c-0.362-0.506-0.825-0.759-1.387-0.759c-0.506,0-0.938,0.211-1.295,0.633C236.715,61.134,236.518,61.703,236.482,62.419z"/>
<path fill="#424144" stroke="#424144" stroke-linecap="square" d="M242.796,67.271V59.13h1.019v1.234
	c0.261-0.572,0.499-0.952,0.717-1.139c0.217-0.187,0.461-0.28,0.731-0.28c0.378,0,0.764,0.148,1.157,0.445l-0.383,1.28
	c-0.281-0.199-0.555-0.3-0.82-0.3c-0.24,0-0.46,0.085-0.659,0.254c-0.199,0.168-0.34,0.403-0.421,0.705
	c-0.144,0.526-0.215,1.086-0.215,1.679v4.263H242.796z"/>
<path fill="#424144" d="M77.981,29.938l7.263,2.197c-0.488,2.038-1.256,3.741-2.305,5.107c-1.049,1.367-2.351,2.398-3.906,3.094
	c-1.555,0.696-3.534,1.044-5.937,1.044c-2.915,0-5.296-0.424-7.145-1.271c-1.848-0.848-3.442-2.339-4.784-4.473
	c-1.342-2.135-2.012-4.867-2.012-8.196c0-4.439,1.18-7.852,3.54-10.236c2.36-2.384,5.699-3.577,10.017-3.577
	c3.378,0,6.034,0.684,7.967,2.051c1.933,1.367,3.369,3.466,4.309,6.297l-7.318,1.629c-0.256-0.817-0.525-1.416-0.805-1.794
	c-0.463-0.634-1.031-1.123-1.701-1.464c-0.671-0.341-1.421-0.513-2.25-0.513c-1.878,0-3.318,0.756-4.318,2.268
	c-0.756,1.122-1.134,2.883-1.134,5.284c0,2.975,0.451,5.014,1.354,6.117c0.902,1.103,2.171,1.655,3.805,1.655
	c1.586,0,2.784-0.445,3.595-1.336S77.615,31.634,77.981,29.938z"/>
<path fill="#424144" d="M88.849,21.48h6.97v3.185c0.671-1.379,1.363-2.328,2.077-2.847c0.714-0.519,1.595-0.778,2.644-0.778
	c1.098,0,2.299,0.342,3.604,1.025l-2.305,5.309c-0.878-0.366-1.574-0.549-2.086-0.549c-0.976,0-1.732,0.403-2.269,1.208
	c-0.768,1.135-1.152,3.259-1.152,6.371v6.517h-7.483V21.48z"/>
<path fill="#424144" d="M105.442,21.48h7.857l4.007,12.943l3.722-12.943h7.337l-7.708,20.774c-0.878,2.369-1.774,3.969-2.688,4.8
	c-1.292,1.172-3.261,1.759-5.907,1.759c-1.073,0-2.731-0.146-4.974-0.439l-0.585-5.199c1.072,0.341,2.267,0.513,3.583,0.513
	c0.877,0,1.587-0.202,2.129-0.605c0.542-0.403,1.002-1.124,1.38-2.162L105.442,21.48z"/>
<path fill="#424144" d="M130.507,48.317V21.48h6.971v2.874c0.963-1.208,1.847-2.026,2.652-2.453c1.085-0.574,2.287-0.86,3.604-0.86
	c2.598,0,4.607,0.995,6.029,2.984c1.42,1.989,2.131,4.449,2.131,7.378c0,3.234-0.774,5.702-2.323,7.405
	c-1.549,1.702-3.507,2.554-5.873,2.554c-1.146,0-2.192-0.195-3.137-0.586c-0.945-0.391-1.791-0.971-2.534-1.739v9.281H130.507z
	 M137.971,31.256c0,1.538,0.323,2.679,0.97,3.423c0.646,0.745,1.463,1.117,2.452,1.117c0.866,0,1.591-0.357,2.177-1.071
	c0.585-0.714,0.878-1.925,0.878-3.634c0-1.574-0.305-2.73-0.915-3.469c-0.61-0.739-1.354-1.108-2.232-1.108
	c-0.951,0-1.744,0.373-2.378,1.117C138.288,28.375,137.971,29.583,137.971,31.256z"/>
<path fill="#424144" d="M164.444,14.084v7.396h4.098v5.455h-4.098v6.888c0,0.829,0.079,1.376,0.237,1.645
	c0.244,0.414,0.671,0.621,1.281,0.621c0.549,0,1.317-0.158,2.305-0.475l0.549,5.143c-1.842,0.403-3.562,0.604-5.159,0.604
	c-1.854,0-3.22-0.237-4.098-0.713c-0.879-0.476-1.528-1.198-1.948-2.167c-0.422-0.969-0.632-2.538-0.632-4.708v-6.838h-2.744V21.48
	h2.744v-3.57L164.444,14.084z"/>
<path fill="#9D9D9C" d="M171.235,35.042l2.78-0.513c-0.084,1.374,0.168,2.394,0.756,3.063c0.588,0.668,1.466,1.002,2.634,1.002
	c1.169,0,2.123-0.29,2.864-0.87c0.741-0.579,1.189-1.314,1.347-2.206c0.136-0.769-0.033-1.367-0.507-1.794
	c-0.326-0.292-1.177-0.659-2.551-1.098c-1.983-0.646-3.29-1.196-3.918-1.647c-0.627-0.452-1.069-1.056-1.326-1.813
	c-0.258-0.756-0.301-1.617-0.132-2.581c0.293-1.66,1.062-3.008,2.306-4.046c1.243-1.037,2.805-1.556,4.683-1.556
	c1.184,0,2.186,0.214,3.007,0.641s1.406,1,1.755,1.721c0.349,0.721,0.496,1.752,0.442,3.094l-2.712,0.439
	c0.13-2.124-0.835-3.186-2.896-3.186c-1.17,0-2.084,0.234-2.739,0.702c-0.656,0.468-1.048,1.067-1.177,1.796
	c-0.126,0.718,0.049,1.283,0.526,1.696c0.287,0.243,1.196,0.632,2.727,1.167c2.11,0.709,3.456,1.275,4.038,1.697
	c0.582,0.422,0.99,0.997,1.228,1.724c0.235,0.728,0.266,1.593,0.09,2.595c-0.328,1.859-1.182,3.363-2.562,4.511
	c-1.38,1.149-3.087,1.725-5.124,1.725C172.956,41.304,171.109,39.217,171.235,35.042z"/>
<path fill="#9D9D9C" d="M186.621,40.864l4.729-26.838h2.689l-1.697,9.629c0.792-0.891,1.626-1.559,2.504-2.005
	c0.877-0.445,1.797-0.668,2.761-0.668c1.695,0,2.938,0.541,3.73,1.621c0.791,1.08,0.934,3.061,0.426,5.94l-2.171,12.321h-2.689
	l2.171-12.321c0.297-1.684,0.211-2.892-0.257-3.625c-0.47-0.732-1.228-1.099-2.276-1.099c-1.171,0-2.251,0.47-3.24,1.41
	c-0.988,0.94-1.694,2.606-2.115,4.998l-1.875,10.637H186.621z"/>
<path fill="#9D9D9C" d="M214.504,38.466c-1.068,0.939-2.132,1.647-3.191,2.123s-2.114,0.715-3.163,0.715
	c-1.658,0-2.894-0.501-3.705-1.501c-0.812-1.001-1.067-2.35-0.769-4.047c0.197-1.122,0.604-2.117,1.221-2.984
	c0.615-0.866,1.37-1.544,2.261-2.032c0.891-0.488,2.174-0.848,3.85-1.08c2.252-0.322,3.93-0.707,5.033-1.153l0.166-0.842
	c0.234-1.33,0.161-2.264-0.22-2.801c-0.533-0.781-1.495-1.171-2.886-1.171c-1.256,0-2.241,0.261-2.955,0.782
	c-0.714,0.521-1.344,1.499-1.889,2.934l-2.576-0.439c0.746-2.087,1.779-3.606,3.1-4.559s3.054-1.428,5.2-1.428
	c1.671,0,2.927,0.314,3.768,0.943c0.841,0.628,1.304,1.406,1.391,2.334s-0.027,2.283-0.341,4.064l-0.774,4.394
	c-0.542,3.076-0.826,5.013-0.851,5.812c-0.024,0.8,0.066,1.578,0.275,2.335h-2.818C214.468,40.193,214.426,39.393,214.504,38.466z
	 M215.582,31.106c-1.074,0.488-2.617,0.903-4.629,1.245c-1.169,0.195-2.001,0.418-2.496,0.668c-0.496,0.25-0.909,0.604-1.239,1.062
	c-0.331,0.458-0.549,0.986-0.654,1.583c-0.163,0.928-0.008,1.669,0.468,2.225c0.476,0.555,1.22,0.832,2.232,0.832
	c0.963,0,1.882-0.25,2.758-0.75c0.874-0.501,1.58-1.169,2.118-2.005c0.537-0.836,0.947-2.054,1.229-3.652L215.582,31.106z"/>
<path fill="#9D9D9C" d="M220.796,40.864l3.426-19.442h2.434l-0.52,2.947c0.862-1.367,1.593-2.273,2.189-2.719
	c0.597-0.445,1.218-0.668,1.865-0.668c0.902,0,1.761,0.354,2.575,1.063l-1.453,3.057c-0.587-0.476-1.198-0.714-1.832-0.714
	c-0.573,0-1.133,0.201-1.68,0.604s-0.981,0.964-1.304,1.684c-0.563,1.257-0.969,2.594-1.219,4.009l-1.793,10.179H220.796z"/>
<path fill="#9D9D9C" d="M243.012,34.603l2.706,0.421c-0.829,2.075-1.943,3.64-3.343,4.696s-2.995,1.584-4.788,1.584
	c-2.257,0-3.933-0.857-5.026-2.572c-1.095-1.715-1.356-4.189-0.787-7.424c0.592-3.356,1.747-5.916,3.467-7.68
	s3.658-2.646,5.817-2.646c2.062,0,3.628,0.867,4.701,2.6c1.072,1.733,1.319,4.241,0.741,7.524l-0.173,0.879h-11.892
	c-0.275,2.185-0.06,3.833,0.647,4.943c0.706,1.11,1.706,1.666,2.999,1.666C240.106,38.594,241.75,37.264,243.012,34.603z
	 M235.077,29.275h8.892c0.175-1.684,0.036-2.941-0.414-3.771c-0.654-1.208-1.651-1.813-2.993-1.813c-1.207,0-2.327,0.503-3.357,1.51
	C236.173,26.209,235.464,27.567,235.077,29.275z"/>
<ellipse fill="#B2B2B2" cx="27.397" cy="27.415" rx="27.397" ry="27.415"/>
<ellipse fill="#424144" cx="27.397" cy="27.415" rx="24.44" ry="24.456"/>
<path fill="#F39200" d="M18.239,22.119l-1.838-3.503c0,0,4.851,0.146,12.321,0.84c-4.137,6.61-6.467,10.354-6.467,10.354
	l-1.696-3.255c-11.311,7.233,2.076,13.341,7.152,12.883C18.013,45.05-0.111,33.716,18.239,22.119"/>
<path fill="#FFFFFF" d="M36.555,32.71l1.838,3.504c0,0-4.85-0.147-12.32-0.84c4.137-6.61,6.466-10.354,6.466-10.354l1.696,3.256
	c11.311-7.233-2.076-13.342-7.152-12.883C36.781,9.779,54.905,21.113,36.555,32.71"/>
</svg>
