<svg id="Ebene_1" data-name="Ebene 1" xmlns="http://www.w3.org/2000/svg" viewBox="0 0 318.77 162.24"><defs><style>.cls-1{fill:#b1b1b1;}.cls-2{fill:#424144;}.cls-3{fill:#fff;}.cls-4{fill:#f29100;}.cls-5{fill:#424043;}</style></defs><circle class="cls-1" cx="157.75" cy="53.7" r="53.7"/><circle class="cls-2" cx="157.75" cy="53.7" r="47.91"/><path class="cls-3" d="M168.1,76.41l-9.78,0c-5.62,0-10.92,0-13.54,0-6.84.14-13.18-2.1-17.34-6.14a17.11,17.11,0,0,1-5.27-12.36,19.25,19.25,0,0,1,15.27-19.19,21.62,21.62,0,0,1,40.76-.35,19.4,19.4,0,0,1-3.51,38l-.3,0C172.79,76.4,170.6,76.41,168.1,76.41Zm-18.65-9.06,8.91,0c6,0,12.24.06,15.69,0a10.39,10.39,0,0,0,.1-20.67l-3.25-.35-.67-3.2a12.62,12.62,0,0,0-24.78.39l-.63,3.59-3.64.13a10.45,10.45,0,0,0-10,10.51,8.21,8.21,0,0,0,2.53,6c2.42,2.34,6.48,3.68,10.9,3.6C145.79,67.36,147.47,67.35,149.45,67.35Z"/><polygon class="cls-4" points="158.28 45.81 143.28 67.31 152.03 67.31 158.16 84.76 165.2 67.31 173.28 67.31 158.28 45.81"/><path class="cls-5" d="M24.39,146.23a16.68,16.68,0,0,1-.4,1.68,12.65,12.65,0,0,1-.86,2.17,13.49,13.49,0,0,1-1.49,2.32,9.47,9.47,0,0,1-2.36,2.09A13.76,13.76,0,0,1,15.87,156a16.45,16.45,0,0,1-4.64.59,12.69,12.69,0,0,1-4.87-.86,9.29,9.29,0,0,1-3.43-2.41,9.92,9.92,0,0,1-2.05-3.69,15.31,15.31,0,0,1-.69-4.73,17.67,17.67,0,0,1,1-5.87,14.65,14.65,0,0,1,2.73-4.84,12.8,12.8,0,0,1,4.37-3.29,13.76,13.76,0,0,1,5.86-1.2,16.71,16.71,0,0,1,4.11.5,9.29,9.29,0,0,1,3.47,1.69A8.29,8.29,0,0,1,24.1,135a12.29,12.29,0,0,1,1,4.83H17.59a3.76,3.76,0,0,0-.81-2.8,3.46,3.46,0,0,0-2.71-1,4.57,4.57,0,0,0-2.79.84,6.69,6.69,0,0,0-1.83,2.12,9.9,9.9,0,0,0-1,2.81,13.71,13.71,0,0,0-.33,2.89,11.16,11.16,0,0,0,.15,1.74,5.26,5.26,0,0,0,.57,1.77,3.83,3.83,0,0,0,1.24,1.36,3.81,3.81,0,0,0,2.18.56,3.84,3.84,0,0,0,2.93-1.12,5.91,5.91,0,0,0,1.45-2.84Z"/><path class="cls-5" d="M29.42,137.32h6.9l-.61,2.91h.07a7.37,7.37,0,0,1,1.12-1.37,9.37,9.37,0,0,1,1.38-1.06,8,8,0,0,1,1.49-.7,4.85,4.85,0,0,1,1.44-.25,14.22,14.22,0,0,1,1.46.06,4.18,4.18,0,0,1,1.06.23l-1.33,6.29a6.11,6.11,0,0,0-1.35-.36,9.38,9.38,0,0,0-1.38-.11,6.58,6.58,0,0,0-2,.27,4,4,0,0,0-1.49.88,5.2,5.2,0,0,0-1.1,1.6,12.72,12.72,0,0,0-.77,2.47L32.69,156H25.57Z"/><path class="cls-5" d="M54.87,157.13c-.41.76-.81,1.45-1.2,2.06a5.21,5.21,0,0,1-1.55,1.55,7,7,0,0,1-2.46.95,19,19,0,0,1-3.92.33q-.83,0-1.65-.06c-.55,0-1.11-.07-1.66-.12l1.08-5.61.88.07c.3,0,.6,0,.88,0s.73,0,1,0a2.19,2.19,0,0,0,.81-.21,1.31,1.31,0,0,0,.53-.56,2.22,2.22,0,0,0,.2-1.06l-3.31-17.15h7.19L53,148.5H53l4.78-11.18h7.41Z"/><path class="cls-5" d="M67.53,137.32h6.9L74,139.44h.07a6.4,6.4,0,0,1,2.14-1.94,6,6,0,0,1,2.86-.65,6.59,6.59,0,0,1,3.27.74,6.33,6.33,0,0,1,2.08,1.85,7.07,7.07,0,0,1,1.12,2.48,11.53,11.53,0,0,1,.32,2.59,17.06,17.06,0,0,1-.54,4.21,13.2,13.2,0,0,1-1.63,3.84,9,9,0,0,1-2.83,2.81,7.54,7.54,0,0,1-4.09,1.07c-.51,0-1,0-1.51-.07a5.43,5.43,0,0,1-1.48-.36,5.18,5.18,0,0,1-1.38-.82,5.49,5.49,0,0,1-1.24-1.48L69.47,162H62.35Zm7.47,14a2.72,2.72,0,0,0,1.8-.6A4.31,4.31,0,0,0,78,149.2a7.07,7.07,0,0,0,.61-1.92,11.48,11.48,0,0,0,.18-1.94,7.71,7.71,0,0,0-.1-1.3,3,3,0,0,0-.4-1.06,2,2,0,0,0-.79-.7,2.9,2.9,0,0,0-1.3-.25,2.56,2.56,0,0,0-1.92.74,5,5,0,0,0-1.13,1.74,8.74,8.74,0,0,0-.54,2.05,12,12,0,0,0-.14,1.65,5.52,5.52,0,0,0,.07.76,3.31,3.31,0,0,0,.34,1,2.5,2.5,0,0,0,.79.9A2.32,2.32,0,0,0,75,151.27Z"/><path class="cls-5" d="M99,137.32h3.85l-1,4.39H98.05l-1.26,6c-.07.31-.14.62-.22.93a4.36,4.36,0,0,0-.1.94,1.13,1.13,0,0,0,.3.79,1.56,1.56,0,0,0,1.13.32c.58,0,1,0,1.39,0l.95-.08-1.08,5.15c-.62.12-1.26.21-1.9.28s-1.3.14-1.94.18-1.54,0-2.31-.09a5.45,5.45,0,0,1-2.19-.66A3.46,3.46,0,0,1,89.38,154a4.52,4.52,0,0,1-.5-2,5.94,5.94,0,0,1,.13-1.33c.08-.38.17-.79.27-1.22l1.65-7.65H87.77l1-4.39h3.09l1.26-5.64h7.12Z"/><path class="cls-5" d="M108.15,149.87a2.19,2.19,0,0,0,.65,1.72,3.06,3.06,0,0,0,1.87.47,2.86,2.86,0,0,0,1.15-.2,1.72,1.72,0,0,0,.64-.47,1.43,1.43,0,0,0,.29-.54,1.71,1.71,0,0,0,.07-.45,1,1,0,0,0-.32-.79,2.63,2.63,0,0,0-.92-.48,8.34,8.34,0,0,0-1.4-.32l-1.81-.31c-.32-.05-.75-.14-1.32-.27a6.19,6.19,0,0,1-1.69-.7,4.56,4.56,0,0,1-1.45-1.42,4.29,4.29,0,0,1-.61-2.43,5.85,5.85,0,0,1,2.94-5.43,9.13,9.13,0,0,1,3-1.09,17.74,17.74,0,0,1,3.34-.31,21,21,0,0,1,3,.22,8.74,8.74,0,0,1,2.79.84,5,5,0,0,1,2,1.8,4.87,4.87,0,0,1,.6,3h-6.37a1.46,1.46,0,0,0-.5-1.48,1.85,1.85,0,0,0-.79-.37,4.19,4.19,0,0,0-.86-.09,2.87,2.87,0,0,0-1.37.34,1.22,1.22,0,0,0-.65,1.17,1.14,1.14,0,0,0,.45,1,2.69,2.69,0,0,0,1.17.36,34.35,34.35,0,0,1,3.47.66,8.38,8.38,0,0,1,2.48,1,4.19,4.19,0,0,1,1.48,1.63,5.63,5.63,0,0,1,.48,2.47,6.33,6.33,0,0,1-.66,2.91,6,6,0,0,1-1.91,2.17,9.41,9.41,0,0,1-3,1.37,14.77,14.77,0,0,1-3.9.48,20.82,20.82,0,0,1-3.11-.23,8.33,8.33,0,0,1-2.9-1,6,6,0,0,1-2.12-2,5.77,5.77,0,0,1-.75-3.39Z"/><path class="cls-5" d="M126.81,130.31h7.12l-2,9.38h.08a6.42,6.42,0,0,1,2.49-2.1,7,7,0,0,1,3-.74,9.64,9.64,0,0,1,2.32.27,5.8,5.8,0,0,1,1.94.86,4.07,4.07,0,0,1,1.33,1.57,5.09,5.09,0,0,1,.49,2.34,10.56,10.56,0,0,1-.15,1.56c-.09.63-.21,1.3-.35,2L140.9,156h-7.12l1.84-8.56c.11-.55.24-1.11.37-1.67a6.56,6.56,0,0,0,.2-1.42,1.62,1.62,0,0,0-.57-1.35,2.29,2.29,0,0,0-1.44-.45,3.21,3.21,0,0,0-1.44.29,2.93,2.93,0,0,0-1,.77,4.35,4.35,0,0,0-.65,1.14,7.37,7.37,0,0,0-.39,1.36L128.64,156h-7.12Z"/><path class="cls-5" d="M147.51,143a8.16,8.16,0,0,1,1.33-3.05A6.79,6.79,0,0,1,151,138a8.59,8.59,0,0,1,2.79-.94,21.27,21.27,0,0,1,3.27-.25c.84,0,1.79.05,2.84.15a11.88,11.88,0,0,1,3,.64,6,6,0,0,1,2.32,1.5,3.73,3.73,0,0,1,.93,2.67,13.16,13.16,0,0,1-.16,1.85q-.16,1.14-.42,2.43c-.16.86-.35,1.74-.55,2.63s-.39,1.71-.56,2.48-.31,1.43-.41,2a7.14,7.14,0,0,0-.16,1.13,4.34,4.34,0,0,0,.28,1.66h-7a5.39,5.39,0,0,1-.22-.88,4,4,0,0,1,0-.92h-.07a4.76,4.76,0,0,1-1.14,1,8.25,8.25,0,0,1-1.43.7,9.84,9.84,0,0,1-1.59.43,8.73,8.73,0,0,1-1.6.14,9.49,9.49,0,0,1-2.28-.26,5.62,5.62,0,0,1-1.94-.87,4.14,4.14,0,0,1-1.33-1.54,5.06,5.06,0,0,1-.49-2.29,6.34,6.34,0,0,1,.67-3,5.25,5.25,0,0,1,1.85-2,8.78,8.78,0,0,1,2.84-1.11,26.42,26.42,0,0,1,3.67-.51l1.67-.07a9.67,9.67,0,0,0,1.69-.2,3,3,0,0,0,1.31-.59,1.56,1.56,0,0,0,.54-1.29,1.29,1.29,0,0,0-.7-1.3,3.71,3.71,0,0,0-1.53-.32,3.49,3.49,0,0,0-1.81.43,2.3,2.3,0,0,0-1,1.47Zm4.64,7.66a1.28,1.28,0,0,0,.7,1.29,3.65,3.65,0,0,0,1.57.33,3,3,0,0,0,2.64-1.22,8.08,8.08,0,0,0,1.17-3.31,6.49,6.49,0,0,1-1.84.59c-.64.11-1.29.19-1.94.24a3.16,3.16,0,0,0-1.6.55A1.76,1.76,0,0,0,152.15,150.62Z"/><path class="cls-5" d="M171.31,137.32h6.91l-.62,2.91h.08a6.94,6.94,0,0,1,1.11-1.37,9,9,0,0,1,1.39-1.06,7.73,7.73,0,0,1,1.49-.7,4.74,4.74,0,0,1,1.43-.25,14.22,14.22,0,0,1,1.46.06,4.08,4.08,0,0,1,1.06.23l-1.33,6.29a6.11,6.11,0,0,0-1.35-.36,9.27,9.27,0,0,0-1.38-.11,6.63,6.63,0,0,0-2,.27,4,4,0,0,0-1.49.88,5.2,5.2,0,0,0-1.1,1.6,13.45,13.45,0,0,0-.77,2.47l-1.62,7.8h-7.11Z"/><path class="cls-5" d="M203.63,150.55c-.12.31-.32.8-.61,1.45a6.28,6.28,0,0,1-1.49,2,9.3,9.3,0,0,1-2.93,1.73,13.62,13.62,0,0,1-4.89.73,12.33,12.33,0,0,1-4.24-.64,7.76,7.76,0,0,1-2.88-1.76,6.78,6.78,0,0,1-1.63-2.63,9.68,9.68,0,0,1-.53-3.2,11.86,11.86,0,0,1,1.1-5.37,10.52,10.52,0,0,1,2.75-3.51,10.37,10.37,0,0,1,3.63-1.9,13.07,13.07,0,0,1,3.7-.58,11.83,11.83,0,0,1,3.17.45,8.9,8.9,0,0,1,2.95,1.44,7.46,7.46,0,0,1,3,6.27c0,.51,0,1-.06,1.57a8,8,0,0,1-.3,1.67H191.08a6.2,6.2,0,0,0,.15,1.4,3.29,3.29,0,0,0,.48,1.15,2.37,2.37,0,0,0,.9.79,3,3,0,0,0,1.39.29,3.59,3.59,0,0,0,1.83-.41,2.62,2.62,0,0,0,1-.92Zm-5.61-6a3.19,3.19,0,0,0,.08-.62,2.42,2.42,0,0,0-2.7-2.51,3.48,3.48,0,0,0-2.37.81,4.38,4.38,0,0,0-1.33,2.32Z"/><path class="cls-5" d="M205.89,152.14h3.24l-.68,3.81h-3.23Z"/><path class="cls-5" d="M217.39,146.67c-.13.75-.26,1.55-.38,2.41a8.85,8.85,0,0,0,0,2.41,3.71,3.71,0,0,0,.74,1.85,2.4,2.4,0,0,0,2,.74,3,3,0,0,0,1.77-.49,4.28,4.28,0,0,0,1.18-1.18,5.72,5.72,0,0,0,.7-1.48,10.25,10.25,0,0,0,.34-1.31h3.09a9.72,9.72,0,0,1-.61,1.92,8.68,8.68,0,0,1-1.39,2.27,8.09,8.09,0,0,1-2.3,1.87,7,7,0,0,1-3.38.77q-3.56,0-4.69-2.44c-.75-1.63-.84-4.11-.25-7.45a30,30,0,0,1,.88-3.64,12.26,12.26,0,0,1,1.56-3.35,8.23,8.23,0,0,1,2.51-2.44,6.9,6.9,0,0,1,3.75-1,5.42,5.42,0,0,1,3.33.87,4.24,4.24,0,0,1,1.56,2.21,8.29,8.29,0,0,1,.29,3,29.48,29.48,0,0,1-.38,3.2l-.22,1.22Zm7.25-2.37.18-1a11,11,0,0,0,.15-1.64,4.63,4.63,0,0,0-.24-1.53,2.51,2.51,0,0,0-.81-1.11,2.45,2.45,0,0,0-1.54-.43,3.05,3.05,0,0,0-2,.63,5.41,5.41,0,0,0-1.3,1.45,7.47,7.47,0,0,0-.75,1.67,12.22,12.22,0,0,0-.33,1.28l-.13.72Z"/><path class="cls-5" d="M231.12,136.68h3.23l2.35,6.86,4.81-6.86h3.23l-6.66,9.24,3.45,10h-3.24l-2.57-7.62L230.6,156h-3.24l7.06-10Z"/><path class="cls-5" d="M247.12,136.68H250l-.41,2.37h.07a3.93,3.93,0,0,1,.71-1.06,5.16,5.16,0,0,1,1.09-.92,6.28,6.28,0,0,1,1.36-.64,4.52,4.52,0,0,1,1.51-.26,4.89,4.89,0,0,1,2.79.72,4.3,4.3,0,0,1,1.59,2,8.58,8.58,0,0,1,.55,3.09,22,22,0,0,1-.36,3.95,23.34,23.34,0,0,1-.9,3.49,16,16,0,0,1-1.59,3.4,9.24,9.24,0,0,1-2.38,2.59,5.41,5.41,0,0,1-3.27,1,3.78,3.78,0,0,1-2.28-.72,3.24,3.24,0,0,1-1.27-2h-.07l-1.51,8.52h-3Zm1.14,9.63a24.56,24.56,0,0,0-.34,2.75,8.25,8.25,0,0,0,.14,2.43,3.55,3.55,0,0,0,.87,1.73,2.47,2.47,0,0,0,1.84.64,3.09,3.09,0,0,0,1.81-.54,4.65,4.65,0,0,0,1.34-1.54,11.42,11.42,0,0,0,1-2.48,34,34,0,0,0,.75-3.35A26,26,0,0,0,256,143a8,8,0,0,0-.15-2.28,2.77,2.77,0,0,0-.81-1.48,2.39,2.39,0,0,0-1.62-.52,3.74,3.74,0,0,0-2.09.56,4.61,4.61,0,0,0-1.43,1.56,10.1,10.1,0,0,0-1,2.39A30.66,30.66,0,0,0,248.26,146.31Z"/><path class="cls-5" d="M263.76,136.68h3l-.51,2.87h.08a15.11,15.11,0,0,1,.93-1.29,6.44,6.44,0,0,1,1.07-1.08,5,5,0,0,1,1.26-.74,4,4,0,0,1,1.5-.27,2.87,2.87,0,0,1,1.29.22l-.51,3-.55-.09a6.52,6.52,0,0,0-1-.06,3.78,3.78,0,0,0-1.3.27,5.25,5.25,0,0,0-1.43.83,6,6,0,0,0-1.25,1.42,5.41,5.41,0,0,0-.78,2L263.38,156h-3Z"/><path class="cls-5" d="M275.23,146.67c-.13.75-.26,1.55-.37,2.41a8.49,8.49,0,0,0,0,2.41,3.63,3.63,0,0,0,.75,1.85,2.36,2.36,0,0,0,2,.74,3,3,0,0,0,1.77-.49,4.14,4.14,0,0,0,1.18-1.18,5.72,5.72,0,0,0,.7-1.48,10.25,10.25,0,0,0,.34-1.31h3.09a9.72,9.72,0,0,1-.61,1.92,8.42,8.42,0,0,1-1.39,2.27,8,8,0,0,1-2.3,1.87,6.93,6.93,0,0,1-3.37.77c-2.38,0-3.94-.81-4.7-2.44s-.83-4.11-.25-7.45a30,30,0,0,1,.88-3.64,12.26,12.26,0,0,1,1.56-3.35,8.38,8.38,0,0,1,2.52-2.44,6.84,6.84,0,0,1,3.74-1,5.47,5.47,0,0,1,3.34.87,4.28,4.28,0,0,1,1.55,2.21,8.29,8.29,0,0,1,.29,3,29.48,29.48,0,0,1-.38,3.2l-.21,1.22Zm7.25-2.37.18-1a9.8,9.8,0,0,0,.15-1.64,4.63,4.63,0,0,0-.24-1.53,2.51,2.51,0,0,0-.81-1.11,2.43,2.43,0,0,0-1.54-.43,3.05,3.05,0,0,0-2,.63,5.58,5.58,0,0,0-1.3,1.45,7.47,7.47,0,0,0-.75,1.67,12.22,12.22,0,0,0-.33,1.28l-.12.72Z"/><path class="cls-5" d="M297.64,142.32a5.12,5.12,0,0,0-.1-2.8c-.28-.65-1-1-2.08-1a5.88,5.88,0,0,0-.91.09,3.23,3.23,0,0,0-1.09.38,3.13,3.13,0,0,0-1,.88,3.41,3.41,0,0,0-.64,1.6,2,2,0,0,0,.16,1.4,2.67,2.67,0,0,0,.92.91,5.3,5.3,0,0,0,1.4.63L296,145q.81.28,1.59.63a4.15,4.15,0,0,1,1.35.94,3.48,3.48,0,0,1,.81,1.51,5.41,5.41,0,0,1,0,2.35,7.72,7.72,0,0,1-.94,2.64,6.49,6.49,0,0,1-1.62,1.89,6.75,6.75,0,0,1-2.18,1.13,8.6,8.6,0,0,1-2.55.38,6.73,6.73,0,0,1-3.65-.79,4.07,4.07,0,0,1-1.64-1.89,4.84,4.84,0,0,1-.34-2.25c.06-.76.13-1.4.22-1.9h3a9.68,9.68,0,0,0-.15,1.67,3.46,3.46,0,0,0,.29,1.44,2.1,2.1,0,0,0,.92,1,3.57,3.57,0,0,0,1.75.36,5.24,5.24,0,0,0,.92-.11,3.41,3.41,0,0,0,1.14-.47,3.83,3.83,0,0,0,1.05-1,3.78,3.78,0,0,0,.66-1.65,2.58,2.58,0,0,0-.14-1.6,2.63,2.63,0,0,0-.89-1,6.24,6.24,0,0,0-1.39-.71l-1.6-.57q-.81-.28-1.62-.63a4.09,4.09,0,0,1-1.36-.92,3.29,3.29,0,0,1-.82-1.51,5.69,5.69,0,0,1,0-2.4,6,6,0,0,1,.89-2.34,6.17,6.17,0,0,1,1.63-1.67,6.7,6.7,0,0,1,2.13-1,8.91,8.91,0,0,1,2.43-.33,6.24,6.24,0,0,1,3.16.65,3.54,3.54,0,0,1,1.48,1.58,4.37,4.37,0,0,1,.35,2,16.58,16.58,0,0,1-.21,1.92Z"/><path class="cls-5" d="M312.27,142.32a5.12,5.12,0,0,0-.1-2.8c-.28-.65-1-1-2.08-1a5.88,5.88,0,0,0-.91.09,3.3,3.3,0,0,0-1.09.38,3.13,3.13,0,0,0-1,.88,3.51,3.51,0,0,0-.64,1.6,2,2,0,0,0,.16,1.4,2.67,2.67,0,0,0,.92.91,5.45,5.45,0,0,0,1.4.63l1.65.54q.81.28,1.59.63a4,4,0,0,1,1.35.94,3.48,3.48,0,0,1,.81,1.51,5.41,5.41,0,0,1,0,2.35,7.92,7.92,0,0,1-.93,2.64,6.67,6.67,0,0,1-1.63,1.89,6.75,6.75,0,0,1-2.18,1.13,8.58,8.58,0,0,1-2.54.38,6.77,6.77,0,0,1-3.66-.79,4.13,4.13,0,0,1-1.64-1.89,4.84,4.84,0,0,1-.34-2.25c.06-.76.14-1.4.23-1.9h3a8.81,8.81,0,0,0-.16,1.67,3.46,3.46,0,0,0,.29,1.44,2.15,2.15,0,0,0,.92,1,3.59,3.59,0,0,0,1.75.36,5.24,5.24,0,0,0,.92-.11,3.41,3.41,0,0,0,1.14-.47,4,4,0,0,0,1.06-1,3.91,3.91,0,0,0,.65-1.65,2.4,2.4,0,0,0-1-2.64,6,6,0,0,0-1.39-.71l-1.6-.57c-.54-.19-1.08-.4-1.61-.63a4,4,0,0,1-1.37-.92,3.19,3.19,0,0,1-.81-1.51,5.51,5.51,0,0,1,0-2.4,6,6,0,0,1,.89-2.34,6.17,6.17,0,0,1,1.63-1.67,6.7,6.7,0,0,1,2.13-1,8.91,8.91,0,0,1,2.43-.33,6.21,6.21,0,0,1,3.16.65,3.48,3.48,0,0,1,1.48,1.58,4.24,4.24,0,0,1,.35,2,16.58,16.58,0,0,1-.21,1.92Z"/></svg>