<?xml version="1.0" encoding="utf-8"?>
<!-- Generator: Adobe Illustrator 25.0.0, SVG Export Plug-In . SVG Version: 6.00 Build 0)  -->
<svg version="1.1" id="Ebene_1" xmlns="http://www.w3.org/2000/svg" xmlns:xlink="http://www.w3.org/1999/xlink" x="0px" y="0px"
	 viewBox="0 0 667.1 107.4" style="enable-background:new 0 0 667.1 107.4;" xml:space="preserve">
<style type="text/css">
	.st0{fill:#424043;}
	.st1{fill:#B1B1B1;}
	.st2{fill:#424144;}
	.st3{fill:#FFFFFF;}
	.st4{fill:#F29100;}
</style>
<path class="st0" d="M163.1,57.4c-0.2,1-0.4,1.9-0.7,2.9c-0.4,1.3-0.9,2.6-1.5,3.8c-0.7,1.4-1.6,2.8-2.6,4c-1.1,1.4-2.5,2.6-4.1,3.6
	c-1.8,1.1-3.8,2-5.9,2.6c-2.6,0.7-5.3,1.1-8,1c-2.9,0.1-5.7-0.4-8.4-1.5c-2.3-0.9-4.3-2.3-5.9-4.1c-1.6-1.9-2.8-4-3.5-6.4
	c-0.8-2.6-1.2-5.4-1.2-8.2c0-3.4,0.5-6.9,1.6-10.1c1-3.1,2.6-5.9,4.7-8.4c2.1-2.4,4.7-4.4,7.6-5.7c3.2-1.4,6.6-2.1,10.1-2.1
	c2.4,0,4.8,0.3,7.1,0.9c2.2,0.5,4.2,1.5,6,2.9c1.8,1.5,3.2,3.3,4.2,5.4c1.1,2.7,1.7,5.5,1.7,8.4h-12.9c0.2-1.7-0.3-3.5-1.4-4.8
	c-1.3-1.2-3-1.8-4.7-1.7c-1.7-0.1-3.4,0.5-4.8,1.5c-1.3,1-2.4,2.2-3.2,3.6c-0.8,1.5-1.4,3.2-1.8,4.8c-0.4,1.6-0.5,3.3-0.6,5
	c0,1,0.1,2,0.3,3c0.2,1.1,0.5,2.1,1,3c0.5,0.9,1.2,1.8,2.1,2.4c1.1,0.7,2.4,1.1,3.8,1c1.9,0.1,3.7-0.6,5.1-1.9
	c1.3-1.4,2.1-3.1,2.5-4.9L163.1,57.4z"/>
<path class="st0" d="M171.8,42h12l-1.1,5h0.1c0.5-0.9,1.2-1.7,1.9-2.4c0.7-0.7,1.5-1.3,2.4-1.8c0.8-0.5,1.7-0.9,2.6-1.2
	c0.8-0.3,1.6-0.4,2.5-0.4c1,0,1.9,0,2.5,0.1c0.6,0.1,1.2,0.2,1.8,0.4l-2.3,10.9c-0.8-0.3-1.5-0.4-2.3-0.5c-0.8-0.1-1.6-0.2-2.4-0.2
	c-1.2,0-2.3,0.1-3.4,0.5c-1,0.3-1.8,0.8-2.6,1.5c-0.8,0.8-1.5,1.7-1.9,2.8c-0.6,1.4-1,2.8-1.3,4.3l-2.8,13.5h-12.4L171.8,42z"/>
<path class="st0" d="M215.9,76.3c-0.7,1.3-1.4,2.5-2.1,3.6c-0.7,1.1-1.6,2-2.7,2.7c-1.3,0.8-2.8,1.4-4.3,1.6
	c-2.2,0.4-4.5,0.6-6.8,0.6c-1,0-1.9,0-2.9-0.1s-1.9-0.1-2.9-0.2l1.9-9.7l1.5,0.1c0.5,0,1,0.1,1.5,0.1c0.7,0,1.3,0,1.8-0.1
	c0.5,0,1-0.1,1.4-0.4c0.4-0.2,0.7-0.6,0.9-1c0.3-0.6,0.4-1.2,0.4-1.8L198,42h12.4l2.1,19.3h0.1L221,42h12.8L215.9,76.3z"/>
<path class="st0" d="M237.8,42h11.9l-0.7,3.7h0.1c1-1.4,2.2-2.5,3.7-3.3c1.5-0.8,3.3-1.2,5-1.1c2-0.1,3.9,0.4,5.7,1.3
	c1.4,0.8,2.7,1.9,3.6,3.2c0.9,1.3,1.6,2.8,1.9,4.3c0.4,1.5,0.5,3,0.6,4.5c0,2.5-0.3,4.9-0.9,7.3c-0.6,2.4-1.5,4.6-2.8,6.6
	c-1.2,2-2.9,3.6-4.9,4.9c-2.1,1.3-4.6,1.9-7.1,1.9c-0.9,0-1.7,0-2.6-0.1c-0.9-0.1-1.7-0.3-2.6-0.6c-0.9-0.4-1.7-0.8-2.4-1.4
	c-0.9-0.7-1.6-1.6-2.1-2.6l-2.9,14.4h-12.4L237.8,42z M250.7,66.1c1.1,0,2.2-0.3,3.1-1c0.8-0.7,1.5-1.6,2-2.5
	c0.5-1.1,0.9-2.2,1.1-3.3c0.2-1.1,0.3-2.2,0.3-3.4c0-0.8-0.1-1.5-0.2-2.2c-0.1-0.7-0.3-1.3-0.7-1.8c-0.3-0.5-0.8-0.9-1.4-1.2
	c-0.7-0.3-1.5-0.5-2.2-0.4c-1.2,0-2.4,0.4-3.3,1.3c-0.9,0.9-1.5,1.9-2,3c-0.5,1.1-0.8,2.3-0.9,3.5c-0.1,0.9-0.2,1.9-0.3,2.9
	c0,0.4,0.1,0.9,0.1,1.3c0.1,0.6,0.3,1.2,0.6,1.8c0.3,0.6,0.8,1.2,1.4,1.6C249,66,249.9,66.2,250.7,66.1z"/>
<path class="st0" d="M292.2,42h6.6l-1.7,7.6h-6.5L288.4,60c-0.1,0.5-0.3,1.1-0.4,1.6c-0.1,0.5-0.2,1.1-0.2,1.6c0,0.5,0.2,1,0.5,1.4
	c0.6,0.4,1.3,0.7,2,0.6c1,0,1.8,0,2.4-0.1l1.6-0.1l-1.9,8.9c-1.1,0.2-2.2,0.4-3.3,0.5s-2.2,0.2-3.4,0.3c-1.3,0-2.7-0.1-4-0.2
	c-1.3-0.1-2.6-0.5-3.8-1.2c-1.1-0.6-1.9-1.5-2.5-2.6c-0.6-1.1-0.9-2.3-0.9-3.5c0-0.8,0.1-1.5,0.2-2.3c0.1-0.7,0.3-1.4,0.5-2.1
	l2.9-13.3h-5.5l1.7-7.6h5.4l2.2-9.8h12.3L292.2,42z"/>
<path class="st0" d="M308.1,63.7c-0.1,1.1,0.3,2.2,1.1,3c1,0.6,2.1,0.9,3.2,0.8c0.7,0,1.4-0.1,2-0.3c0.4-0.2,0.8-0.5,1.1-0.8
	c0.2-0.3,0.4-0.6,0.5-0.9c0.1-0.3,0.1-0.5,0.1-0.8c0-0.5-0.2-1-0.6-1.4c-0.5-0.4-1-0.7-1.6-0.8c-0.8-0.3-1.6-0.4-2.4-0.6
	c-0.9-0.1-2-0.3-3.1-0.5c-0.5-0.1-1.3-0.2-2.3-0.5c-1-0.3-2-0.7-2.9-1.2c-1-0.6-1.9-1.5-2.5-2.5c-0.8-1.3-1.1-2.7-1.1-4.2
	c-0.2-3.8,1.8-7.5,5.1-9.4c1.6-0.9,3.3-1.6,5.2-1.9c1.9-0.3,3.8-0.5,5.8-0.5c1.7,0,3.5,0.1,5.2,0.4c1.7,0.2,3.3,0.7,4.8,1.4
	c3.2,1.5,5,4.9,4.5,8.4h-11c0.2-0.9-0.1-1.9-0.9-2.5c-0.4-0.3-0.9-0.5-1.4-0.7c-0.5-0.1-1-0.1-1.5-0.2c-0.8,0-1.6,0.2-2.4,0.6
	c-0.7,0.4-1.2,1.2-1.1,2c-0.1,0.7,0.2,1.4,0.8,1.8c0.6,0.4,1.3,0.6,2,0.6c2,0.3,4,0.7,6,1.2c1.5,0.4,3,1,4.3,1.8
	c1.1,0.7,2,1.7,2.6,2.8c0.6,1.3,0.9,2.8,0.8,4.3c0,1.7-0.4,3.4-1.1,5c-0.8,1.5-1.9,2.8-3.3,3.8c-1.6,1.1-3.3,1.9-5.2,2.4
	c-2.2,0.6-4.5,0.9-6.8,0.8c-1.8,0-3.6-0.1-5.4-0.4c-1.8-0.2-3.4-0.8-5-1.7c-1.5-0.8-2.7-2-3.7-3.4c-1-1.8-1.5-3.8-1.3-5.9
	L308.1,63.7z"/>
<path class="st0" d="M340.4,29.9h12.3l-3.4,16.2h0.1c1.1-1.6,2.6-2.8,4.3-3.6c1.6-0.8,3.4-1.2,5.2-1.3c1.3,0,2.7,0.1,4,0.5
	c1.2,0.3,2.3,0.8,3.4,1.5c1,0.7,1.8,1.6,2.3,2.7c0.6,1.3,0.9,2.6,0.8,4c0,0.9-0.1,1.8-0.3,2.7c-0.2,1.1-0.4,2.3-0.6,3.5l-3.9,18.2
	h-12.3l3.2-14.8c0.2-1,0.4-1.9,0.6-2.9c0.2-0.8,0.3-1.6,0.4-2.5c0.1-0.9-0.3-1.8-1-2.3c-0.7-0.5-1.6-0.8-2.5-0.8
	c-0.9,0-1.7,0.1-2.5,0.5c-0.6,0.3-1.2,0.8-1.7,1.3c-0.5,0.6-0.9,1.3-1.1,2c-0.3,0.8-0.5,1.6-0.7,2.4l-3.6,17.1h-12.3L340.4,29.9z"/>
<path class="st0" d="M376.2,51.8c0.4-1.9,1.2-3.7,2.3-5.3c1-1.3,2.3-2.4,3.7-3.2c1.5-0.8,3.1-1.4,4.8-1.6c1.9-0.3,3.8-0.4,5.7-0.4
	c1.5,0,3.1,0.1,4.9,0.2c1.8,0.2,3.5,0.5,5.1,1.1c1.5,0.5,2.9,1.4,4,2.6c1.1,1.3,1.7,2.9,1.6,4.6c0,1.1-0.1,2.1-0.3,3.2
	c-0.2,1.3-0.4,2.7-0.7,4.2s-0.6,3-1,4.5s-0.7,3-1,4.3s-0.5,2.5-0.7,3.4c-0.1,0.7-0.2,1.3-0.3,2c0,1,0.1,2,0.5,2.9h-12
	c-0.2-0.5-0.3-1-0.4-1.5c-0.1-0.5-0.1-1.1-0.1-1.6h-0.1c-0.6,0.7-1.2,1.3-2,1.7c-0.8,0.5-1.6,0.9-2.5,1.2c-1.8,0.7-3.6,1-5.5,1
	c-1.3,0-2.7-0.1-4-0.5c-1.2-0.3-2.3-0.8-3.3-1.5c-1-0.7-1.8-1.6-2.3-2.7c-0.6-1.2-0.9-2.6-0.8-4c-0.1-1.8,0.3-3.7,1.1-5.3
	c0.8-1.4,1.9-2.6,3.2-3.4c1.5-0.9,3.2-1.6,4.9-1.9c2.1-0.4,4.2-0.7,6.4-0.9l2.9-0.1c1,0,2-0.1,2.9-0.3c0.8-0.2,1.6-0.5,2.3-1
	c0.7-0.6,1-1.4,0.9-2.2c0.1-0.9-0.4-1.8-1.2-2.3c-0.8-0.4-1.7-0.6-2.6-0.6c-1.1,0-2.2,0.2-3.1,0.8c-0.9,0.6-1.5,1.5-1.8,2.5
	L376.2,51.8z M384.2,65c-0.1,0.9,0.4,1.8,1.2,2.2c0.9,0.4,1.8,0.6,2.7,0.6c1.8,0.1,3.5-0.7,4.6-2.1c1.1-1.7,1.8-3.7,2-5.7
	c-1,0.5-2.1,0.8-3.2,1c-1.1,0.2-2.2,0.3-3.4,0.4c-1,0.1-2,0.4-2.8,1C384.6,63,384.1,64,384.2,65L384.2,65z"/>
<path class="st0" d="M417.4,42h11.9l-1,5h0.1c0.5-0.9,1.2-1.7,1.9-2.4c0.7-0.7,1.5-1.3,2.4-1.8c0.8-0.5,1.7-0.9,2.6-1.2
	c0.8-0.3,1.6-0.4,2.5-0.4c1,0,1.9,0,2.5,0.1c0.6,0.1,1.2,0.2,1.8,0.4l-2.3,10.9c-0.8-0.3-1.5-0.4-2.3-0.5c-0.8-0.1-1.6-0.2-2.4-0.2
	c-1.2,0-2.3,0.1-3.5,0.5c-1,0.3-1.9,0.8-2.6,1.5c-0.8,0.8-1.4,1.7-1.9,2.8c-0.6,1.4-1,2.8-1.3,4.3L423,74.3h-12.3L417.4,42z"/>
<path class="st0" d="M473.3,64.9c-0.2,0.5-0.6,1.4-1.1,2.5c-0.6,1.3-1.5,2.5-2.6,3.4c-1.5,1.3-3.2,2.3-5.1,3
	c-2.7,0.9-5.6,1.4-8.5,1.3c-2.5,0.1-5-0.3-7.4-1.1c-1.9-0.6-3.6-1.6-5-3c-1.3-1.3-2.2-2.9-2.8-4.6c-0.6-1.8-0.9-3.7-0.9-5.5
	c-0.1-3.2,0.6-6.4,1.9-9.3c1.1-2.3,2.8-4.4,4.8-6.1c1.9-1.5,4-2.6,6.3-3.3c2.1-0.6,4.2-1,6.4-1c1.9,0,3.7,0.3,5.5,0.8
	c1.8,0.5,3.6,1.4,5.1,2.5c3.4,2.5,5.4,6.6,5.2,10.9c0,0.9,0,1.8-0.1,2.7c-0.1,1-0.2,2-0.5,2.9h-23c0,0.8,0.1,1.6,0.3,2.4
	c0.2,0.7,0.4,1.4,0.8,2c0.4,0.6,0.9,1.1,1.6,1.4c0.7,0.4,1.6,0.5,2.4,0.5c1.1,0.1,2.2-0.2,3.2-0.7c0.7-0.4,1.3-0.9,1.7-1.6
	L473.3,64.9z M463.6,54.5c0.1-0.3,0.1-0.7,0.1-1.1c0.1-2.3-1.7-4.3-4-4.4c-0.2,0-0.4,0-0.7,0c-1.5-0.1-2.9,0.4-4.1,1.4
	c-1.2,1.1-2,2.5-2.3,4L463.6,54.5z"/>
<path class="st0" d="M477.2,67.6h5.6l-1.2,6.6h-5.6L477.2,67.6z"/>
<path class="st0" d="M497.1,58.2c-0.2,1.3-0.4,2.7-0.6,4.2c-0.2,1.4-0.2,2.8,0,4.2c0.1,1.2,0.6,2.3,1.3,3.2c0.9,0.9,2.1,1.4,3.4,1.3
	c1.1,0,2.2-0.3,3.1-0.8c0.8-0.5,1.5-1.2,2-2.1c0.5-0.8,0.9-1.6,1.2-2.6c0.2-0.7,0.4-1.5,0.6-2.3h5.4c-0.2,1.1-0.6,2.3-1.1,3.3
	c-0.6,1.4-1.4,2.7-2.4,3.9c-1.1,1.3-2.5,2.4-4,3.2c-1.8,0.9-3.8,1.4-5.8,1.3c-4.1,0-6.8-1.4-8.1-4.2c-1.3-2.8-1.4-7.1-0.4-12.9
	c0.4-2.1,0.9-4.2,1.5-6.3c0.6-2.1,1.5-4,2.7-5.8c1.1-1.7,2.6-3.1,4.4-4.2c2-1.2,4.2-1.7,6.5-1.7c2-0.1,4.1,0.4,5.8,1.5
	c1.3,1,2.2,2.3,2.7,3.8c0.5,1.7,0.7,3.4,0.5,5.2c-0.1,1.9-0.3,3.7-0.7,5.5l-0.4,2.1L497.1,58.2z M509.7,54.1l0.3-1.8
	c0.2-0.9,0.2-1.9,0.3-2.8c0-0.9-0.1-1.8-0.4-2.7c-0.3-0.8-0.7-1.4-1.4-1.9c-0.8-0.5-1.7-0.8-2.7-0.7c-1.2,0-2.4,0.3-3.4,1.1
	c-0.9,0.7-1.7,1.5-2.2,2.5c-0.6,0.9-1,1.9-1.3,2.9c-0.2,0.7-0.4,1.5-0.6,2.2l-0.2,1.2H509.7z"/>
<path class="st0" d="M520.9,40.9h5.6l4.1,11.9l8.3-11.9h5.6l-11.5,16l6,17.4h-5.6L528.8,61L520,74.2h-5.6l12.2-17.4L520.9,40.9z"/>
<path class="st0" d="M548.6,40.9h5l-0.7,4.1h0.1c0.3-0.7,0.7-1.3,1.2-1.8c0.6-0.6,1.2-1.1,1.9-1.6c0.7-0.5,1.5-0.8,2.3-1.1
	c0.8-0.3,1.7-0.5,2.6-0.5c1.7-0.1,3.4,0.4,4.8,1.2c1.2,0.9,2.2,2.1,2.7,3.5c0.7,1.7,1,3.5,1,5.3c0,2.3-0.2,4.6-0.6,6.8
	c-0.4,2-0.9,4-1.6,6c-0.7,2.1-1.6,4-2.8,5.9c-1.1,1.7-2.5,3.3-4.1,4.5c-1.6,1.2-3.6,1.8-5.7,1.8c-1.4,0-2.8-0.4-4-1.3
	c-1.1-0.8-1.9-2-2.2-3.4h-0.1L546,85.2h-5.2L548.6,40.9z M550.6,57.6c-0.3,1.6-0.5,3.2-0.6,4.8c-0.1,1.4,0,2.8,0.2,4.2
	c0.2,1.1,0.7,2.2,1.5,3c0.9,0.8,2,1.2,3.2,1.1c1.1,0,2.2-0.3,3.1-0.9c1-0.7,1.7-1.6,2.3-2.7c0.7-1.4,1.3-2.8,1.7-4.3
	c0.5-1.9,1-3.8,1.3-5.8c0.3-1.7,0.5-3.3,0.6-5c0.1-1.3,0-2.7-0.3-4c-0.2-1-0.7-1.9-1.4-2.5c-0.8-0.6-1.8-1-2.8-0.9
	c-1.3,0-2.5,0.3-3.6,1c-1,0.7-1.9,1.6-2.5,2.7c-0.7,1.3-1.3,2.7-1.7,4.1C551.3,53.9,550.9,55.6,550.6,57.6L550.6,57.6z"/>
<path class="st0" d="M577.4,40.9h5.2l-0.9,5h0.1c0.5-0.8,1-1.5,1.6-2.2c0.5-0.7,1.2-1.3,1.8-1.9c0.7-0.5,1.4-1,2.2-1.3
	c0.8-0.3,1.7-0.5,2.6-0.5c0.8-0.1,1.5,0.1,2.2,0.4l-0.9,5.1l-0.9-0.2c-0.6-0.1-1.2-0.1-1.8-0.1c-0.8,0-1.5,0.2-2.3,0.5
	c-0.9,0.3-1.7,0.8-2.4,1.4c-0.8,0.7-1.6,1.5-2.2,2.5c-0.7,1.1-1.1,2.3-1.3,3.5l-3.7,21.1h-5.2L577.4,40.9z"/>
<path class="st0" d="M597.2,58.2c-0.2,1.3-0.4,2.7-0.6,4.2c-0.2,1.4-0.2,2.8,0,4.2c0.1,1.2,0.6,2.3,1.3,3.2c0.9,0.9,2.1,1.4,3.4,1.3
	c1.1,0,2.2-0.3,3.1-0.8c0.8-0.5,1.5-1.2,2-2.1c0.5-0.8,0.9-1.6,1.2-2.6c0.2-0.7,0.4-1.5,0.6-2.3h5.3c-0.2,1.1-0.6,2.3-1,3.3
	c-0.6,1.4-1.4,2.7-2.4,3.9c-1.1,1.3-2.5,2.4-4,3.2c-1.8,0.9-3.8,1.4-5.8,1.3c-4.1,0-6.8-1.4-8.1-4.2c-1.3-2.8-1.4-7.1-0.4-12.9
	c0.4-2.1,0.9-4.2,1.5-6.3c0.6-2.1,1.5-4,2.7-5.8c1.1-1.7,2.6-3.1,4.4-4.2c2-1.2,4.2-1.7,6.5-1.7c2-0.1,4.1,0.4,5.8,1.5
	c1.3,1,2.2,2.3,2.7,3.8c0.5,1.7,0.7,3.4,0.5,5.2c-0.1,1.9-0.3,3.7-0.7,5.5l-0.4,2.1L597.2,58.2z M609.8,54.1l0.3-1.8
	c0.2-0.9,0.2-1.9,0.3-2.8c0-0.9-0.1-1.8-0.4-2.7c-0.3-0.8-0.7-1.4-1.4-1.9c-0.8-0.5-1.7-0.8-2.7-0.7c-1.2,0-2.4,0.3-3.4,1.1
	c-0.9,0.7-1.7,1.5-2.2,2.5c-0.6,0.9-1,1.9-1.3,2.9c-0.2,0.7-0.4,1.5-0.6,2.2l-0.2,1.2H609.8z"/>
<path class="st0" d="M636,50.7c0.4-1.6,0.3-3.3-0.2-4.8c-0.5-1.1-1.7-1.7-3.6-1.7c-0.5,0-1.1,0.1-1.6,0.2c-0.7,0.1-1.3,0.3-1.9,0.7
	c-0.7,0.4-1.3,0.9-1.8,1.5c-0.6,0.8-1,1.8-1.1,2.8c-0.2,0.8-0.1,1.7,0.3,2.4c0.4,0.7,0.9,1.2,1.6,1.6c0.8,0.5,1.6,0.8,2.4,1.1
	c0.9,0.3,1.9,0.6,2.8,0.9c0.9,0.3,1.9,0.7,2.8,1.1c0.9,0.4,1.7,1,2.4,1.7c0.7,0.7,1.2,1.6,1.4,2.6c0.3,1.3,0.3,2.7,0,4.1
	c-0.3,1.6-0.8,3.2-1.6,4.6c-0.7,1.3-1.7,2.4-2.8,3.3c-1.1,0.9-2.4,1.6-3.8,2c-1.4,0.4-2.9,0.7-4.4,0.7c-2.8,0-4.9-0.5-6.3-1.4
	c-1.3-0.8-2.3-1.9-2.8-3.3c-0.5-1.2-0.7-2.6-0.6-3.9c0.1-1.3,0.2-2.4,0.4-3.3h5.2c-0.2,1-0.3,1.9-0.3,2.9c0,0.9,0.2,1.7,0.5,2.5
	c0.3,0.7,0.9,1.3,1.6,1.7c0.9,0.5,2,0.7,3,0.6c0.5,0,1.1-0.1,1.6-0.2c0.7-0.1,1.4-0.4,2-0.8c0.7-0.4,1.3-1,1.8-1.7
	c0.6-0.8,1-1.8,1.1-2.9c0.2-0.9,0.1-1.9-0.2-2.8c-0.3-0.7-0.9-1.4-1.5-1.8c-0.7-0.5-1.6-0.9-2.4-1.2l-2.8-1
	c-0.9-0.3-1.9-0.7-2.8-1.1c-0.9-0.4-1.7-1-2.4-1.7c-0.7-0.7-1.2-1.6-1.4-2.6c-0.3-1.4-0.3-2.8,0-4.2c0.4-2.8,2-5.3,4.4-6.9
	c1.1-0.8,2.4-1.4,3.7-1.7c1.4-0.4,2.8-0.6,4.3-0.6c1.9-0.1,3.8,0.3,5.5,1.1c1.1,0.6,2,1.6,2.5,2.8c0.5,1.1,0.7,2.3,0.6,3.5
	c-0.1,1.1-0.2,2.2-0.4,3.3H636z"/>
<path class="st0" d="M661.3,50.7c0.4-1.6,0.3-3.3-0.2-4.8c-0.5-1.1-1.7-1.7-3.6-1.7c-0.5,0-1.1,0.1-1.6,0.2
	c-0.7,0.1-1.3,0.3-1.9,0.7c-0.7,0.4-1.3,0.9-1.7,1.5c-0.6,0.8-1,1.8-1.1,2.8c-0.2,0.8-0.1,1.7,0.3,2.4c0.4,0.7,0.9,1.2,1.6,1.6
	c0.8,0.5,1.6,0.8,2.4,1.1c0.9,0.3,1.9,0.6,2.9,0.9s1.8,0.7,2.8,1.1c0.9,0.4,1.7,1,2.3,1.7c0.7,0.7,1.2,1.6,1.4,2.6
	c0.3,1.3,0.3,2.7,0,4.1c-0.3,1.6-0.8,3.2-1.6,4.6c-0.7,1.3-1.7,2.4-2.8,3.3c-1.1,0.9-2.4,1.6-3.8,2c-1.4,0.4-2.9,0.7-4.4,0.7
	c-2.8,0-4.9-0.5-6.3-1.4c-1.3-0.8-2.3-1.9-2.8-3.3c-0.5-1.2-0.7-2.6-0.6-3.9c0.1-1.3,0.2-2.4,0.4-3.3h5.2c-0.2,1-0.3,1.9-0.3,2.9
	c0,0.9,0.2,1.7,0.5,2.5c0.3,0.7,0.9,1.3,1.6,1.7c0.9,0.5,2,0.7,3,0.6c0.5,0,1.1-0.1,1.6-0.2c0.7-0.1,1.4-0.4,2-0.8
	c0.7-0.4,1.3-1,1.8-1.7c0.6-0.9,1-1.8,1.1-2.9c0.2-0.9,0.1-1.9-0.2-2.8c-0.3-0.7-0.9-1.4-1.5-1.8c-0.7-0.5-1.6-0.9-2.4-1.2l-2.8-1
	c-0.9-0.3-1.9-0.7-2.8-1.1c-0.9-0.4-1.7-1-2.4-1.7c-0.7-0.7-1.2-1.6-1.4-2.6c-0.3-1.4-0.3-2.8,0-4.2c0.2-1.4,0.8-2.8,1.6-4
	c0.7-1.1,1.7-2.1,2.8-2.9c1.1-0.8,2.4-1.4,3.7-1.7c1.4-0.4,2.8-0.6,4.2-0.6c1.9-0.1,3.8,0.3,5.5,1.1c1.1,0.6,2,1.6,2.6,2.7
	c0.5,1.1,0.7,2.3,0.6,3.5c-0.1,1.1-0.2,2.2-0.4,3.3L661.3,50.7z"/>
<circle class="st1" cx="53.7" cy="53.7" r="53.7"/>
<circle class="st2" cx="53.7" cy="53.7" r="47.9"/>
<path class="st3" d="M64.1,76.4h-9.8c-5.6,0-10.9,0-13.5,0c-6.8,0.1-13.2-2.1-17.3-6.1c-3.4-3.2-5.3-7.7-5.3-12.4
	c-0.2-9.2,6.2-17.3,15.3-19.2c3.9-11.3,16.2-17.3,27.5-13.4c6.2,2.1,11,6.9,13.3,13.1c10.3,2.9,16.3,13.6,13.4,23.9
	c-2.2,7.8-8.9,13.4-16.9,14.1h-0.3C68.7,76.4,66.5,76.4,64.1,76.4z M45.4,67.3h8.9c6,0,12.2,0.1,15.7,0c5.7-0.6,9.9-5.6,9.3-11.4
	c-0.5-4.9-4.3-8.8-9.2-9.3l-3.3-0.3l-0.7-3.2c-1.4-6.8-8.1-11.2-14.9-9.8c-5,1.1-8.9,5.1-9.8,10.2l-0.6,3.6l-3.6,0.1
	c-5.6,0.2-10,4.9-10,10.5c0,2.3,0.9,4.4,2.5,6c2.4,2.3,6.5,3.7,10.9,3.6C41.7,67.4,43.4,67.3,45.4,67.3z"/>
<polygon class="st4" points="54.2,45.8 39.2,67.3 48,67.3 54.1,84.8 61.2,67.3 69.2,67.3 "/>
</svg>
