<?xml version="1.0" encoding="utf-8"?>
<!-- Generator: Adobe Illustrator 15.0.0, SVG Export Plug-In  -->
<!DOCTYPE svg PUBLIC "-//W3C//DTD SVG 1.1 Tiny//EN" "http://www.w3.org/Graphics/SVG/1.1/DTD/svg11-tiny.dtd" [
	<!ENTITY ns_flows "http://ns.adobe.com/Flows/1.0/">
]>
<svg version="1.1" baseProfile="tiny"
	 xmlns="http://www.w3.org/2000/svg" xmlns:xlink="http://www.w3.org/1999/xlink" xmlns:a="http://ns.adobe.com/AdobeSVGViewerExtensions/3.0/"
	 x="0px" y="0px" width="729px" height="208px" viewBox="-0.118 -0.772 729 208" xml:space="preserve">
<defs>
</defs>
<path fill="#424144" d="M718.573,39.376c2.894,0,5.324,1.005,7.283,3.014c1.96,2.009,2.939,4.36,2.939,7.053
	c0,1.874-0.483,3.598-1.452,5.172c-0.969,1.575-2.24,2.778-3.811,3.62c-1.563,0.839-3.219,1.26-4.96,1.26
	c-2.893,0-5.319-1-7.28-3.005c-1.954-2.004-2.938-4.354-2.938-7.046c0-1.887,0.485-3.614,1.455-5.187
	c0.969-1.573,2.237-2.781,3.806-3.62C715.181,39.796,716.839,39.376,718.573,39.376z M718.573,41.042
	c-2.431,0-4.485,0.87-6.171,2.615c-1.563,1.616-2.348,3.545-2.348,5.787c0,2.407,0.896,4.441,2.676,6.092
	c1.651,1.532,3.602,2.296,5.843,2.296c2.422,0,4.482-0.872,6.179-2.615c1.562-1.607,2.344-3.534,2.344-5.772
	c0-2.41-0.89-4.441-2.674-6.095C722.77,41.811,720.819,41.042,718.573,41.042z M714.087,55.005V44.172h3.795
	c1.3,0,2.222,0.099,2.772,0.294c0.551,0.196,1.005,0.533,1.37,1.012c0.362,0.48,0.543,1.021,0.543,1.626
	c0,0.834-0.289,1.532-0.876,2.098c-0.585,0.565-1.334,0.882-2.251,0.954c0.408,0.168,0.731,0.374,0.976,0.618
	c0.464,0.465,0.99,1.169,1.583,2.109l1.313,2.122h-2.146l-0.991-1.705c-0.744-1.306-1.344-2.139-1.801-2.499
	c-0.337-0.272-0.825-0.405-1.451-0.405h-1.055v4.609H714.087z M715.869,48.903h2.16c0.968,0,1.656-0.14,2.054-0.42
	c0.403-0.281,0.604-0.691,0.604-1.231c0-0.347-0.1-0.649-0.305-0.909c-0.203-0.257-0.465-0.438-0.784-0.544
	c-0.316-0.106-0.893-0.16-1.716-0.16h-2.014V48.903z"/>
<path fill="#424144" stroke="#424144" stroke-linecap="square" d="M380.804,196.109v-32.765h5.34l6.374,23.199l1.274,4.85
	c0.313-1.207,0.79-2.958,1.431-5.252l6.44-22.797h4.781v32.765h-3.417v-27.402l-7.83,27.402h-3.191l-7.785-27.874v27.874H380.804z"
	/>
<path fill="#424144" stroke="#424144" stroke-linecap="square" d="M424.358,193.182c-1.102,1.147-2.248,2.012-3.439,2.593
	c-1.191,0.58-2.428,0.871-3.708,0.871c-2.025,0-3.641-0.61-4.847-1.832s-1.809-2.868-1.809-4.939c0-1.371,0.282-2.585,0.849-3.644
	c0.565-1.058,1.34-1.885,2.322-2.48c0.983-0.596,2.472-1.035,4.468-1.318c2.68-0.394,4.646-0.863,5.896-1.408l0.022-1.028
	c0-1.624-0.291-2.764-0.871-3.42c-0.819-0.953-2.078-1.43-3.775-1.43c-1.533,0-2.68,0.318-3.439,0.954
	c-0.76,0.637-1.317,1.831-1.675,3.583l-3.239-0.537c0.462-2.548,1.396-4.402,2.804-5.564c1.407-1.163,3.421-1.744,6.041-1.744
	c2.04,0,3.641,0.384,4.803,1.151c1.161,0.768,1.895,1.718,2.2,2.85c0.305,1.133,0.457,2.786,0.457,4.962v5.364
	c0,3.754,0.071,6.12,0.213,7.096s0.42,1.926,0.837,2.85h-3.439C424.685,195.29,424.462,194.314,424.358,193.182z M424.09,184.197
	c-1.206,0.596-3.001,1.103-5.383,1.52c-1.385,0.238-2.354,0.511-2.904,0.815c-0.551,0.306-0.979,0.737-1.284,1.297
	c-0.305,0.559-0.458,1.203-0.458,1.933c0,1.133,0.35,2.038,1.05,2.716s1.668,1.017,2.904,1.017c1.176,0,2.244-0.305,3.205-0.916
	c0.96-0.61,1.679-1.427,2.155-2.447s0.715-2.507,0.715-4.459V184.197z"/>
<path fill="#424144" stroke="#424144" stroke-linecap="square" d="M432.623,196.109v-32.765h3.283v18.715l7.826-9.686H448
	l-7.439,8.813l8.177,14.922h-4.043l-6.462-12.165l-2.326,2.756v9.409H432.623z"/>
<path fill="#424144" stroke="#424144" stroke-linecap="square" d="M451.317,167.971v-4.626h3.283v4.626H451.317z M451.317,196.109
	v-23.735h3.283v23.735H451.317z"/>
<path fill="#424144" stroke="#424144" stroke-linecap="square" d="M459.648,196.109v-23.735h2.971v3.353
	c0.713-1.304,1.587-2.277,2.62-2.922c1.032-0.646,2.218-0.968,3.556-0.968c1.041,0,2.003,0.205,2.888,0.615
	c0.884,0.41,1.598,0.946,2.141,1.609c0.542,0.663,0.947,1.523,1.215,2.581c0.268,1.059,0.401,2.682,0.401,4.872v14.595h-3.283
	v-14.453c0-1.746-0.149-3.021-0.446-3.826c-0.299-0.806-0.764-1.429-1.396-1.868c-0.633-0.44-1.366-0.66-2.2-0.66
	c-1.578,0-2.836,0.589-3.774,1.768s-1.407,3.199-1.407,6.063v12.977H459.648z"/>
<path fill="#424144" stroke="#424144" stroke-linecap="square" d="M479.862,198.076l3.216,0.581c0.148,1.274,0.596,2.222,1.34,2.844
	c0.745,0.622,1.779,0.934,3.105,0.934c1.443,0,2.594-0.347,3.45-1.039c0.856-0.693,1.44-1.726,1.754-3.097
	c0.193-0.835,0.29-2.593,0.29-5.275c-0.715,1.021-1.519,1.791-2.412,2.309c-0.894,0.519-1.884,0.777-2.971,0.777
	c-2.323,0-4.251-0.983-5.785-2.95c-1.757-2.265-2.636-5.297-2.636-9.097c0-2.548,0.388-4.775,1.162-6.683
	c0.773-1.907,1.79-3.308,3.049-4.201c1.258-0.895,2.669-1.342,4.232-1.342c1.146,0,2.192,0.282,3.138,0.844
	c0.945,0.563,1.783,1.406,2.513,2.531v-2.838h3.038v20.517c0,3.65-0.298,6.255-0.894,7.812s-1.571,2.786-2.926,3.688
	c-1.355,0.901-2.985,1.353-4.892,1.353c-2.517,0-4.452-0.678-5.808-2.034C480.472,202.353,479.817,200.475,479.862,198.076z
	 M482.586,183.816c0,3.122,0.515,5.4,1.544,6.834c1.03,1.435,2.291,2.151,3.783,2.151s2.76-0.702,3.805-2.106
	c1.044-1.404,1.566-3.638,1.566-6.699c0-2.987-0.537-5.21-1.611-6.666s-2.38-2.185-3.917-2.185c-1.372,0-2.577,0.729-3.614,2.185
	S482.586,180.949,482.586,183.816z"/>
<path fill="#424144" stroke="#424144" stroke-linecap="square" d="M525.091,188.466l3.395,0.514
	c-0.566,2.533-1.59,4.444-3.071,5.733s-3.316,1.933-5.506,1.933c-2.755,0-4.984-1.046-6.689-3.14s-2.557-5.114-2.557-9.063
	c0-4.097,0.859-7.223,2.579-9.375c1.72-2.153,3.897-3.23,6.533-3.23c2.517,0,4.616,1.059,6.299,3.174
	c1.683,2.116,2.523,5.178,2.523,9.187l-0.022,1.072h-14.518c0.134,2.667,0.752,4.679,1.854,6.034
	c1.103,1.356,2.442,2.034,4.021,2.034C522.403,193.338,524.123,191.714,525.091,188.466z M514.258,181.962h10.854
	c-0.148-2.057-0.588-3.591-1.317-4.604c-1.058-1.475-2.405-2.212-4.043-2.212c-1.474,0-2.732,0.614-3.774,1.844
	C514.935,178.218,514.362,179.876,514.258,181.962z"/>
<path fill="#424144" stroke="#424144" stroke-linecap="square" d="M531.412,186.275v-4.045h10.118v4.045H531.412z"/>
<path fill="#424144" stroke="#424144" stroke-linecap="square" d="M545.17,196.109v-23.735h2.948v3.308
	c0.654-1.229,1.493-2.178,2.52-2.844c1.025-0.667,2.148-1.001,3.367-1.001c1.367,0,2.523,0.353,3.467,1.057
	c0.944,0.704,1.617,1.73,2.019,3.079c0.777-1.378,1.67-2.412,2.678-3.102c1.009-0.689,2.126-1.034,3.352-1.034
	c1.867,0,3.339,0.634,4.415,1.9c1.075,1.267,1.613,3.293,1.613,6.079v16.293h-3.283v-14.968c0-1.701-0.124-2.905-0.371-3.613
	c-0.247-0.709-0.646-1.257-1.201-1.645c-0.554-0.388-1.175-0.582-1.863-0.582c-1.423,0-2.583,0.563-3.481,1.689
	s-1.347,2.897-1.347,5.313v13.805h-3.284v-15.438c0-1.97-0.301-3.356-0.904-4.162c-0.603-0.806-1.434-1.208-2.49-1.208
	c-1.504,0-2.691,0.607-3.563,1.823s-1.307,3.435-1.307,6.656v12.328H545.17z"/>
<path fill="#424144" stroke="#424144" stroke-linecap="square" d="M589.059,193.182c-1.102,1.147-2.248,2.012-3.439,2.593
	c-1.191,0.58-2.428,0.871-3.708,0.871c-2.025,0-3.641-0.61-4.847-1.832s-1.809-2.868-1.809-4.939c0-1.371,0.282-2.585,0.849-3.644
	c0.565-1.058,1.34-1.885,2.322-2.48c0.983-0.596,2.472-1.035,4.468-1.318c2.68-0.394,4.646-0.863,5.896-1.408l0.022-1.028
	c0-1.624-0.291-2.764-0.871-3.42c-0.819-0.953-2.078-1.43-3.775-1.43c-1.533,0-2.68,0.318-3.439,0.954
	c-0.76,0.637-1.317,1.831-1.675,3.583l-3.239-0.537c0.462-2.548,1.396-4.402,2.804-5.564c1.407-1.163,3.421-1.744,6.041-1.744
	c2.04,0,3.641,0.384,4.803,1.151c1.161,0.768,1.895,1.718,2.2,2.85c0.305,1.133,0.457,2.786,0.457,4.962v5.364
	c0,3.754,0.071,6.12,0.213,7.096s0.42,1.926,0.837,2.85h-3.439C589.386,195.29,589.164,194.314,589.059,193.182z M588.792,184.197
	c-1.206,0.596-3.001,1.103-5.383,1.52c-1.385,0.238-2.354,0.511-2.904,0.815c-0.551,0.306-0.979,0.737-1.284,1.297
	c-0.305,0.559-0.458,1.203-0.458,1.933c0,1.133,0.35,2.038,1.05,2.716s1.668,1.017,2.904,1.017c1.176,0,2.244-0.305,3.205-0.916
	c0.96-0.61,1.679-1.427,2.155-2.447s0.715-2.507,0.715-4.459V184.197z"/>
<path fill="#424144" stroke="#424144" stroke-linecap="square" d="M597.256,167.971v-4.626h3.283v4.626H597.256z M597.256,196.109
	v-23.735h3.283v23.735H597.256z"/>
<path fill="#424144" stroke="#424144" stroke-linecap="square" d="M605.476,196.109v-32.765h3.283v32.765H605.476z"/>
<path fill="#424144" stroke="#424144" stroke-linecap="square" d="M627.365,196.109h-3.061v-32.765h3.306v11.688
	c0.7-1.072,1.493-1.873,2.379-2.402s1.872-0.794,2.96-0.794c1.519,0,2.899,0.455,4.143,1.363c1.243,0.909,2.237,2.288,2.982,4.135
	c0.744,1.849,1.116,4.091,1.116,6.728c0,4.023-0.843,7.126-2.528,9.309c-1.685,2.184-3.653,3.274-5.905,3.274
	c-1.134,0-2.152-0.294-3.054-0.883c-0.903-0.588-1.683-1.464-2.338-2.626V196.109z M627.315,184.063
	c0,2.459,0.224,4.299,0.672,5.521s1.082,2.153,1.903,2.794s1.732,0.961,2.732,0.961c1.358,0,2.563-0.764,3.616-2.291
	s1.578-3.811,1.578-6.85c0-3.114-0.507-5.401-1.522-6.862c-1.015-1.46-2.262-2.189-3.739-2.189c-1.358,0-2.572,0.764-3.64,2.29
	C627.849,178.964,627.315,181.172,627.315,184.063z"/>
<path fill="#424144" stroke="#424144" stroke-linecap="square" d="M658.5,188.466l3.395,0.514c-0.566,2.533-1.59,4.444-3.071,5.733
	s-3.316,1.933-5.506,1.933c-2.755,0-4.984-1.046-6.689-3.14s-2.557-5.114-2.557-9.063c0-4.097,0.859-7.223,2.579-9.375
	c1.72-2.153,3.897-3.23,6.533-3.23c2.517,0,4.616,1.059,6.299,3.174c1.683,2.116,2.523,5.178,2.523,9.187l-0.022,1.072h-14.518
	c0.134,2.667,0.752,4.679,1.854,6.034c1.103,1.356,2.442,2.034,4.021,2.034C655.812,193.338,657.532,191.714,658.5,188.466z
	 M647.667,181.962h10.854c-0.148-2.057-0.588-3.591-1.317-4.604c-1.058-1.475-2.405-2.212-4.043-2.212
	c-1.474,0-2.732,0.614-3.774,1.844C648.344,178.218,647.771,179.876,647.667,181.962z"/>
<path fill="#424144" stroke="#424144" stroke-linecap="square" d="M673.398,192.511l0.446,3.554
	c-0.908,0.238-1.728,0.357-2.457,0.357c-1.146,0-2.069-0.227-2.77-0.682c-0.7-0.454-1.18-1.076-1.44-1.866
	c-0.261-0.789-0.391-2.361-0.391-4.716v-13.655h-2.412v-3.129h2.412v-5.878l3.283-2.414v8.292h3.328v3.129h-3.328v13.879
	c0,1.282,0.097,2.108,0.29,2.481c0.283,0.536,0.812,0.805,1.586,0.805C672.318,192.668,672.802,192.615,673.398,192.511z"/>
<path fill="#424144" stroke="#424144" stroke-linecap="square" d="M683.829,192.511l0.446,3.554
	c-0.908,0.238-1.728,0.357-2.457,0.357c-1.146,0-2.069-0.227-2.77-0.682c-0.7-0.454-1.18-1.076-1.44-1.866
	c-0.261-0.789-0.391-2.361-0.391-4.716v-13.655h-2.412v-3.129h2.412v-5.878l3.283-2.414v8.292h3.328v3.129H680.5v13.879
	c0,1.282,0.097,2.108,0.29,2.481c0.283,0.536,0.812,0.805,1.586,0.805C682.749,192.668,683.233,192.615,683.829,192.511z"/>
<path fill="#424144" stroke="#424144" stroke-linecap="square" d="M700.223,188.466l3.395,0.514
	c-0.566,2.533-1.59,4.444-3.071,5.733s-3.316,1.933-5.506,1.933c-2.755,0-4.984-1.046-6.689-3.14s-2.557-5.114-2.557-9.063
	c0-4.097,0.859-7.223,2.579-9.375c1.72-2.153,3.897-3.23,6.533-3.23c2.517,0,4.616,1.059,6.299,3.174
	c1.683,2.116,2.523,5.178,2.523,9.187l-0.022,1.072h-14.518c0.134,2.667,0.752,4.679,1.854,6.034
	c1.103,1.356,2.442,2.034,4.021,2.034C697.535,193.338,699.254,191.714,700.223,188.466z M689.39,181.962h10.854
	c-0.148-2.057-0.588-3.591-1.317-4.604c-1.058-1.475-2.405-2.212-4.043-2.212c-1.474,0-2.732,0.614-3.774,1.844
	C690.067,178.218,689.494,179.876,689.39,181.962z"/>
<path fill="#424144" stroke="#424144" stroke-linecap="square" d="M707.794,196.109v-23.735h2.971v3.598
	c0.76-1.668,1.455-2.774,2.088-3.318s1.344-0.816,2.134-0.816c1.102,0,2.226,0.433,3.372,1.297l-1.116,3.732
	c-0.819-0.581-1.616-0.872-2.391-0.872c-0.7,0-1.34,0.246-1.921,0.738c-0.58,0.491-0.99,1.177-1.229,2.056
	c-0.417,1.535-0.625,3.166-0.625,4.895v12.427H707.794z"/>
<path fill="#424144" d="M227.331,87.274l21.173,6.404c-1.422,5.942-3.663,10.905-6.72,14.89c-3.059,3.984-6.854,6.991-11.387,9.019
	c-4.534,2.028-10.303,3.042-17.307,3.042c-8.498,0-15.44-1.235-20.827-3.706s-10.036-6.817-13.947-13.04
	c-3.912-6.223-5.867-14.187-5.867-23.894c0-12.942,3.44-22.889,10.32-29.84c6.88-6.951,16.613-10.427,29.2-10.427
	c9.849,0,17.591,1.993,23.227,5.978c5.635,3.985,9.822,10.104,12.56,18.358l-21.333,4.75c-0.747-2.383-1.529-4.127-2.347-5.23
	c-1.352-1.849-3.005-3.273-4.96-4.269c-1.956-0.996-4.143-1.495-6.56-1.495c-5.476,0-9.672,2.204-12.587,6.61
	c-2.205,3.27-3.307,8.405-3.307,15.404c0,8.671,1.315,14.615,3.947,17.831c2.631,3.216,6.329,4.824,11.093,4.824
	c4.622,0,8.115-1.298,10.48-3.896C224.548,95.991,226.264,92.22,227.331,87.274z"/>
<path fill="#424144" d="M259.011,62.618h20.32v9.286c1.955-4.02,3.974-6.786,6.054-8.299c2.08-1.512,4.648-2.268,7.707-2.268
	c3.2,0,6.702,0.997,10.507,2.989l-6.72,15.477c-2.56-1.067-4.586-1.601-6.08-1.601c-2.845,0-5.049,1.174-6.613,3.522
	c-2.24,3.309-3.36,9.5-3.36,18.572v18.999h-21.813V62.618z"/>
<path fill="#424144" d="M307.384,62.618h22.904l11.683,37.731l10.85-37.731h21.39l-22.472,60.559
	c-2.559,6.907-5.172,11.571-7.837,13.992c-3.768,3.418-9.507,5.128-17.219,5.128c-3.128,0-7.961-0.427-14.501-1.281l-1.705-15.156
	c3.125,0.995,6.607,1.494,10.444,1.494c2.558,0,4.627-0.588,6.208-1.763c1.581-1.177,2.922-3.278,4.023-6.306L307.384,62.618z"/>
<path fill="#424144" d="M380.451,140.855V62.618h20.321v8.379c2.808-3.522,5.386-5.906,7.732-7.151
	c3.165-1.672,6.667-2.508,10.507-2.508c7.574,0,13.432,2.9,17.574,8.699c4.142,5.799,6.213,12.968,6.213,21.507
	c0,9.429-2.258,16.625-6.773,21.587s-10.223,7.445-17.12,7.445c-3.343,0-6.392-0.57-9.146-1.708
	c-2.756-1.139-5.219-2.829-7.387-5.07v27.058H380.451z M402.211,91.116c0,4.483,0.941,7.811,2.827,9.98
	c1.884,2.171,4.267,3.255,7.146,3.255c2.524,0,4.64-1.041,6.347-3.122c1.706-2.081,2.56-5.612,2.56-10.593
	c0-4.59-0.889-7.96-2.666-10.113c-1.778-2.152-3.947-3.229-6.507-3.229c-2.773,0-5.085,1.086-6.934,3.255
	C403.135,82.72,402.211,86.242,402.211,91.116z"/>
<path fill="#424144" d="M479.385,41.057v21.561h11.946v15.904h-11.946v20.08c0,2.415,0.23,4.012,0.693,4.793
	c0.711,1.208,1.955,1.811,3.733,1.811c1.6,0,3.84-0.461,6.72-1.385l1.6,14.994c-5.369,1.174-10.382,1.762-15.04,1.762
	c-5.404,0-9.387-0.693-11.946-2.079c-2.561-1.386-4.453-3.491-5.68-6.316c-1.228-2.825-1.841-7.399-1.841-13.725V78.521h-8V62.618h8
	V52.211L479.385,41.057z"/>
<path fill="#9D9D9C" d="M499.183,102.155l8.104-1.495c-0.244,4.003,0.49,6.978,2.205,8.926c1.714,1.948,4.273,2.922,7.679,2.922
	s6.188-0.845,8.35-2.535c2.159-1.688,3.468-3.833,3.926-6.43c0.396-2.242-0.098-3.984-1.479-5.231
	c-0.952-0.853-3.431-1.92-7.436-3.202c-5.783-1.885-9.591-3.486-11.421-4.803c-1.83-1.317-3.119-3.078-3.868-5.284
	c-0.75-2.206-0.877-4.714-0.382-7.525c0.854-4.838,3.093-8.77,6.72-11.795c3.625-3.023,8.176-4.537,13.652-4.537
	c3.448,0,6.37,0.624,8.764,1.869c2.394,1.246,4.1,2.917,5.116,5.017s1.447,5.106,1.291,9.019l-7.906,1.281
	c0.379-6.191-2.435-9.287-8.443-9.287c-3.413,0-6.076,0.682-7.987,2.046c-1.912,1.364-3.055,3.109-3.43,5.235
	c-0.368,2.092,0.142,3.739,1.533,4.943c0.837,0.709,3.487,1.843,7.95,3.402c6.15,2.069,10.074,3.718,11.771,4.947
	c1.695,1.23,2.887,2.905,3.577,5.026c0.688,2.121,0.776,4.643,0.262,7.564c-0.955,5.417-3.443,9.801-7.465,13.152
	c-4.022,3.351-9.001,5.025-14.938,5.025C504.198,120.407,498.817,114.323,499.183,102.155z"/>
<path fill="#9D9D9C" d="M544.034,119.126l13.787-78.238h7.84l-4.947,28.071c2.307-2.597,4.738-4.544,7.297-5.843
	c2.557-1.298,5.24-1.949,8.05-1.949c4.941,0,8.566,1.575,10.875,4.723c2.307,3.149,2.721,8.922,1.241,17.318l-6.329,35.917h-7.84
	l6.329-35.917c0.865-4.91,0.614-8.432-0.751-10.567c-1.367-2.135-3.578-3.202-6.636-3.202c-3.413,0-6.562,1.37-9.444,4.109
	c-2.883,2.741-4.939,7.597-6.168,14.57l-5.464,31.007H544.034z"/>
<path fill="#9D9D9C" d="M625.32,112.134c-3.115,2.74-6.216,4.804-9.305,6.191c-3.09,1.387-6.163,2.082-9.22,2.082
	c-4.836,0-8.438-1.459-10.803-4.376c-2.366-2.917-3.112-6.85-2.241-11.795c0.576-3.272,1.763-6.172,3.56-8.699
	c1.795-2.526,3.993-4.501,6.591-5.924c2.597-1.422,6.337-2.472,11.222-3.149c6.564-0.939,11.456-2.06,14.672-3.362l0.485-2.454
	c0.684-3.878,0.47-6.6-0.641-8.166c-1.556-2.276-4.358-3.416-8.411-3.416c-3.663,0-6.534,0.761-8.615,2.28
	c-2.081,1.519-3.917,4.371-5.508,8.554l-7.508-1.281c2.174-6.084,5.187-10.514,9.035-13.289c3.85-2.776,8.901-4.164,15.16-4.164
	c4.871,0,8.532,0.917,10.982,2.749c2.451,1.833,3.802,4.101,4.055,6.804c0.252,2.704-0.079,6.654-0.994,11.848l-2.257,12.809
	c-1.58,8.966-2.408,14.615-2.479,16.945c-0.073,2.33,0.193,4.6,0.801,6.805h-8.214C625.213,117.17,625.091,114.838,625.32,112.134z
	 M628.46,90.68c-3.132,1.423-7.629,2.633-13.493,3.629c-3.407,0.57-5.834,1.219-7.276,1.948c-1.445,0.73-2.649,1.761-3.612,3.095
	c-0.965,1.335-1.6,2.874-1.907,4.617c-0.477,2.704-0.022,4.866,1.364,6.485c1.386,1.618,3.554,2.428,6.506,2.428
	c2.808,0,5.487-0.729,8.039-2.188c2.55-1.458,4.607-3.406,6.176-5.844c1.567-2.436,2.762-5.986,3.583-10.646L628.46,90.68z"/>
<path fill="#9D9D9C" d="M643.661,119.126l9.987-56.678h7.094l-1.514,8.592c2.515-3.984,4.642-6.625,6.383-7.925
	c1.739-1.298,3.551-1.949,5.437-1.949c2.631,0,5.133,1.033,7.508,3.096l-4.237,8.912c-1.711-1.388-3.491-2.081-5.34-2.081
	c-1.672,0-3.304,0.587-4.897,1.761c-1.593,1.174-2.86,2.812-3.799,4.91c-1.641,3.665-2.825,7.561-3.553,11.688l-5.229,29.673
	H643.661z"/>
<path fill="#9D9D9C" d="M708.424,100.874l7.89,1.228c-2.417,6.049-5.666,10.612-9.745,13.689c-4.08,3.078-8.733,4.617-13.96,4.617
	c-6.579,0-11.463-2.5-14.652-7.499c-3.191-4.998-3.954-12.212-2.293-21.641c1.725-9.785,5.092-17.247,10.104-22.388
	c5.013-5.141,10.666-7.712,16.959-7.712c6.009,0,10.576,2.528,13.705,7.579c3.127,5.053,3.848,12.364,2.161,21.935l-0.504,2.562
	h-34.667c-0.802,6.369-0.174,11.172,1.888,14.409c2.06,3.238,4.975,4.856,8.743,4.856
	C699.956,112.508,704.746,108.63,708.424,100.874z M685.293,85.343h25.921c0.509-4.91,0.105-8.574-1.209-10.994
	c-1.905-3.523-4.813-5.284-8.724-5.284c-3.52,0-6.783,1.468-9.788,4.403C688.487,76.404,686.42,80.363,685.293,85.343z"/>
<ellipse fill="#B2B2B2" cx="79.868" cy="79.92" rx="79.868" ry="79.92"/>
<ellipse fill="#424144" cx="79.867" cy="79.92" rx="71.248" ry="71.295"/>
<path fill="#F39200" d="M53.171,64.481l-5.359-10.212c0,0,14.14,0.427,35.917,2.448C71.668,75.987,64.878,86.9,64.878,86.9
	l-4.945-9.49c-32.973,21.086,6.052,38.893,20.849,37.557C52.511,131.328-0.324,98.29,53.171,64.481"/>
<path fill="#FFFFFF" d="M106.564,95.357l5.357,10.214c0,0-14.139-0.428-35.916-2.449c12.061-19.269,18.85-30.185,18.85-30.185
	l4.945,9.491c32.973-21.086-6.051-38.894-20.849-37.558C107.225,28.509,160.059,61.549,106.564,95.357"/>
</svg>
