<?xml version="1.0" encoding="UTF-8" standalone="no"?>
<svg
   xmlns:dc="http://purl.org/dc/elements/1.1/"
   xmlns:cc="http://creativecommons.org/ns#"
   xmlns:rdf="http://www.w3.org/1999/02/22-rdf-syntax-ns#"
   xmlns:svg="http://www.w3.org/2000/svg"
   xmlns="http://www.w3.org/2000/svg"
   viewBox="0 0 359.05334 472.44"
   height="472.44"
   width="359.05334"
   xml:space="preserve"
   id="svg2"
   version="1.1"><metadata
     id="metadata8"><rdf:RDF><cc:Work
         rdf:about=""><dc:format>image/svg+xml</dc:format><dc:type
           rdf:resource="http://purl.org/dc/dcmitype/StillImage" /></cc:Work></rdf:RDF></metadata><defs
     id="defs6" /><g
     transform="matrix(1.3333333,0,0,-1.3333333,0,472.44)"
     id="g10"><g
       transform="scale(0.1)"
       id="g12"><path
         id="path14"
         style="fill:#ffffff;fill-opacity:1;fill-rule:nonzero;stroke:none"
         d="M 2623.53,0 H 69.4063 C 31.1289,0 0,32.1484 0,71.6719 V 3471.66 c 0,39.51 31.1289,71.65 69.4063,71.65 H 2623.53 c 38.25,0 69.39,-32.14 69.39,-71.65 V 71.6719 C 2692.92,32.1484 2661.78,0 2623.53,0" /><path
         id="path16"
         style="fill:#a1a7b3;fill-opacity:1;fill-rule:nonzero;stroke:none"
         d="m 69.4063,3503.26 c -16.8868,0 -30.6133,-14.18 -30.6133,-31.6 V 71.6719 c 0,-17.4336 13.7265,-31.6133 30.6133,-31.6133 H 2623.53 c 16.87,0 30.59,14.1797 30.59,31.6133 V 3471.66 c 0,17.42 -13.72,31.6 -30.59,31.6 z M 2623.53,0 H 69.4063 C 31.1289,0 0,32.1484 0,71.6719 V 3471.66 c 0,39.51 31.1289,71.65 69.4063,71.65 H 2623.53 c 38.25,0 69.39,-32.14 69.39,-71.65 V 71.6719 C 2692.92,32.1484 2661.78,0 2623.53,0" /><path
         id="path18"
         style="fill:#a1a7b3;fill-opacity:1;fill-rule:nonzero;stroke:none"
         d="m 1252.81,1331.51 c -2.54,-3.37 -6.42,-5.08 -10.38,-5.92 -4.48,-0.55 -9.12,0.46 -12.94,3.34 l -206.68,155.26 -276.544,207.74 -206.684,155.27 c -3.82,2.87 -6.086,7.05 -6.809,11.5 -0.296,4.03 0.27,8.24 2.805,11.62 l 56.383,75.06 c 0,0 61.848,80.03 116.18,152.35 l 232.625,-174.75 251.984,-189.3 232.63,-174.75 c -54.33,-72.33 -116.19,-152.36 -116.19,-152.36 z m -388.771,946.41 205.491,-154.42 -0.04,-0.05 138.89,-104.3 138.86,-104.35 0.03,0.05 205.54,-154.35 c 7.84,-5.9 9.49,-17 3.68,-24.75 l -49.28,-67.88 -232.62,174.75 -251.98,189.3 -232.63,174.75 49.274,67.89 c 5.809,7.74 16.937,9.25 24.785,3.36 z m 712.241,-487.36 -345,259.08 -344.913,259.2 c -24.019,18.04 -58.183,13.23 -76.191,-10.74 L 506.504,1893.87 c -4.742,-6.32 -7.664,-13.34 -9.301,-20.6 -5.258,-20.63 1.926,-43.41 20.024,-57.01 L 722.738,1661.87 1000.48,1453.22 1206,1298.84 c 18.1,-13.61 41.98,-14.15 60.33,-3.36 6.52,3.59 12.45,8.36 17.2,14.67 l 303.67,404.23 c 18.01,23.98 13.11,58.13 -10.92,76.18" /><path
         id="path20"
         style="fill:#2b61ac;fill-opacity:1;fill-rule:nonzero;stroke:none"
         d="m 459.055,333 242.328,804.67 656.577,0.01 -56.6,-75.77 -81.44,-112.539 -9.27,-16.641 -8.55,-19.32 -8.76,-21.762 -9.15,-23.128 -8.76,-25.2 -8.63,-24.75 -8.17,-24.89 -8.04,-24.43 -7.19,-23.18 -6.66,-21.351 -5.87,-18.629 -4.48,-15.539 -3.44,-11.903 -2.85,-7.359 c 0,0 -0.54,-1.59 -1.94,-3.519 -1.63,-2.25 -11.55,-11.36 -19.66,-5.34 -7.78,5.781 -6.93,26.211 -6.15,35.922 2.41,29.769 4.81,59.558 7.22,89.339 0.84,10.438 -11.96,16.36 -20.22,11.598 -36.21,-20.848 -57.85,-46.16 -77.65,-75.059 1.84,6.782 3.68,13.551 5.52,20.329 8.33,30.703 20.14,62.453 24.63,93.98 2.55,18.02 -2,39.41 -23.08,42.91 -23.668,3.93 -39.157,-20.961 -50.77,-37.367 -35.059,-49.523 -55.801,-112.371 -99.297,-155.461 -16.387,-16.23 -34.574,-28.141 -58.183,-21.441 -27.282,7.73 -37.891,-24.418 10.316,-28.758 47.367,-4.274 82.644,45.828 104.199,80.859 15.645,25.43 29.32,51.981 44.57,77.629 7.321,12.328 14.958,24.5 23.364,36.121 3.586,4.949 10.414,18.231 16.832,20 8.419,2.321 6.269,-2.543 5.749,-9.152 -1.16,-14.969 -7.484,-30.399 -11.398,-44.828 -4.285,-15.781 -8.562,-31.563 -12.843,-47.34 -9.18,-33.832 -18.356,-67.652 -27.528,-101.473 -4.16,-15.34 16.067,-22.437 24.555,-10.347 33.764,48.109 50.564,88.918 92.204,121.101 -0.86,-10.57 -1.71,-21.152 -2.56,-31.711 -1.42,-17.492 -4.73,-35.972 -3.54,-53.492 1.95,-28.547 23.58,-48.359 50.65,-35.859 14.22,6.558 24.39,16.511 24.39,16.511 l 1.66,1.129 5.72,4.309 10.41,6.91 14.22,9.781 15.8,11.809 17.43,12.301 20.51,14.429 20.78,15.321 20.76,15.3 20.78,15.329 20.33,15.461 19,14.332 17.5,14.289 15.34,11.929 12.19,11.352 9.57,9.129 0.34,0.531 0.26,-0.211 64.69,76.488 165.51,221.321 h 293.7 L 2134.49,333 Z m 1179.275,839.5 520.36,695.85 53.07,69.96 c 0,0 1.04,1.49 1.6,2.27 3.77,5.21 3.04,12.05 -2.15,15.81 l -147.3,106.74 c -5.13,3.73 -11.9,2.28 -15.69,-2.88 -0.54,-0.74 -1.65,-2.12 -1.65,-2.12 l -19.94,-25.45 -642.65,-860.19 H 676.184 L 410.934,298.172 H 2181.76 L 1931.62,1172.5 h -293.29" /><path
         id="path22"
         style="fill:#2b61ac;fill-opacity:1;fill-rule:nonzero;stroke:none"
         d="m 2278.47,1905.43 -19.45,14.62 c -3.87,2.91 -9.41,2.12 -12.33,-1.75 l -247.36,-329.1 c -2.91,-3.87 -2.13,-9.43 1.75,-12.34 l 19.45,-14.61 c 3.87,-2.91 9.42,-2.12 12.33,1.74 l 247.36,329.11 c 2.91,3.87 2.13,9.42 -1.75,12.33" /><path
         id="path24"
         style="fill:#2b61ac;fill-opacity:1;fill-rule:nonzero;stroke:none"
         d="m 1284.94,504.199 h 492.09 l -10.44,39 H 803.281 l -10.437,-39 h 492.096" /><path
         id="path26"
         style="fill:#2b61ac;fill-opacity:1;fill-rule:nonzero;stroke:none"
         d="m 772.926,2850.73 c -44.16,0 -84.766,10.65 -117.778,28.41 l 11.172,73.61 c 33.508,-17.76 68.028,-27.93 105.578,-27.93 41.633,0 59.915,15.23 59.915,41.64 0,59.89 -175.137,34.51 -175.137,161.93 0,64.47 41.629,116.75 138.066,116.75 37.071,0 77.172,-7.62 106.606,-19.79 l -10.649,-72.09 c -31.484,10.15 -62.945,16.24 -91.879,16.24 -47.215,0 -59.91,-16.24 -59.91,-36.55 0,-59.39 175.133,-31.99 175.133,-160.91 0,-75.12 -52.293,-121.31 -141.117,-121.31" /><path
         id="path28"
         style="fill:#2b61ac;fill-opacity:1;fill-rule:nonzero;stroke:none"
         d="m 1244.06,2932.44 0.02,-74.62 H 985.195 v 380.71 h 258.865 l 0.02,-75.62 h -173.09 v -75.64 h 140.6 v -68.02 h -140.6 v -86.81 h 173.07" /><path
         id="path30"
         style="fill:#2b61ac;fill-opacity:1;fill-rule:nonzero;stroke:none"
         d="m 1456.33,3166.97 h -50.75 v -116.76 h 50.75 c 42.13,0 60.41,10.65 60.41,58.37 0,45.69 -16.25,58.39 -60.41,58.39 z m 0,-185.29 h -50.75 v -123.86 h -85.79 v 380.71 h 136.54 c 105.6,0 148.73,-41.61 148.73,-130.45 0,-80.2 -42.62,-126.4 -148.73,-126.4" /><path
         id="path32"
         style="fill:#2b61ac;fill-opacity:1;fill-rule:nonzero;stroke:none"
         d="m 1787.41,3133.97 -38.08,-130.47 h 96.96 l -36.55,130.47 -10.16,40.11 h -1.53 z m 79.18,-202.03 h -138.07 l -21.32,-74.12 h -90.35 l 131.46,380.71 h 102.04 l 132.99,-380.71 h -95.43 l -21.32,74.12" /><path
         id="path34"
         style="fill:#2b61ac;fill-opacity:1;fill-rule:nonzero;stroke:none"
         d="m 769.867,2610.76 -0.945,-35.83 H 656.965 v 176.77 h 40.066 v -140.94 h 72.836" /><path
         id="path36"
         style="fill:#2b61ac;fill-opacity:1;fill-rule:nonzero;stroke:none"
         d="m 871.465,2636.21 c -3.52,1.42 -10.594,3.07 -20.258,3.07 -16.269,0 -23.812,-6.37 -23.812,-18.85 0,-13.93 8.242,-18.86 20.273,-18.86 12.484,0 23.797,7.54 23.797,16.73 z m 5.426,-47.61 -0.703,0.23 c -8.727,-10.36 -22.391,-16.27 -38.668,-16.27 -27.098,0 -44.301,15.34 -44.301,47.4 0,26.4 18.386,44.53 50.914,44.53 10.594,0 19.789,-1.65 27.332,-4 v 8.24 c 0,14.38 -7.543,21 -27.098,21 -15.789,0 -26.168,-2.38 -39.367,-7.8 l -3.07,29.24 c 14.383,6.12 30.656,9.42 49.027,9.42 42.203,0 56.82,-18.15 56.82,-57.27 v -88.39 h -28.05 l -2.836,13.67" /><path
         id="path38"
         style="fill:#2b61ac;fill-opacity:1;fill-rule:nonzero;stroke:none"
         d="m 986.758,2572.09 c -17.203,0 -32.754,3.31 -44.785,9.9 l 3.769,30.17 c 11.797,-6.82 28.535,-10.13 40.785,-10.13 14.613,0 20.743,5.9 20.743,14.38 0,22.87 -66.235,9.67 -66.235,59.63 0,25.7 17.442,44.09 54.219,44.09 14.366,0 28.526,-2.84 40.536,-7.78 l -3.06,-29.93 c -11.79,4.93 -27.58,7.31 -38.195,7.31 -12.015,0 -18.621,-4.73 -18.621,-12.03 0,-21.68 65.296,-8.72 65.296,-58 0,-28.51 -15.78,-47.61 -54.452,-47.61" /><path
         id="path40"
         style="fill:#2b61ac;fill-opacity:1;fill-rule:nonzero;stroke:none"
         d="m 1113.12,2690.43 v -73.08 c 0,-11.08 5.66,-15.78 16.97,-15.78 3.77,0 8.71,0.7 11.32,1.65 l 2.12,-26.63 c -4.96,-2.14 -14.39,-4.03 -24.52,-4.03 -28.52,0 -42.44,16.51 -42.44,43.63 v 74.24 h -16.02 v 27.33 h 17.67 l 6.13,32.31 28.77,2.59 v -34.9 h 31.82 v -27.33 h -31.82" /><path
         id="path42"
         style="fill:#2b61ac;fill-opacity:1;fill-rule:nonzero;stroke:none"
         d="m 1215.66,2572.09 c -17.2,0 -32.75,3.31 -44.79,9.9 l 3.77,30.17 c 11.81,-6.82 28.54,-10.13 40.79,-10.13 14.62,0 20.74,5.9 20.74,14.38 0,22.87 -66.23,9.67 -66.23,59.63 0,25.7 17.44,44.09 54.22,44.09 14.37,0 28.52,-2.84 40.53,-7.78 l -3.05,-29.93 c -11.8,4.93 -27.59,7.31 -38.2,7.31 -12.01,0 -18.62,-4.73 -18.62,-12.03 0,-21.68 65.3,-8.72 65.3,-58 0,-28.51 -15.79,-47.61 -54.46,-47.61" /><path
         id="path44"
         style="fill:#2b61ac;fill-opacity:1;fill-rule:nonzero;stroke:none"
         d="m 1394.13,2682.89 c -7.32,2.58 -16.03,4.46 -24.29,4.46 -26.63,0 -35.36,-11.08 -35.36,-41.25 0,-30.64 12.5,-42.65 34.66,-42.65 9.43,0 18.39,1.89 25.93,5.43 l 2.59,-28.52 c -8.47,-5.2 -21.21,-8.27 -36.53,-8.27 -42.2,0 -64.6,24.05 -64.6,74.01 0,47.4 19.58,74.03 65.3,74.03 12.01,0 25.45,-2.61 34.42,-6.14 l -2.12,-31.1" /><path
         id="path46"
         style="fill:#2b61ac;fill-opacity:1;fill-rule:nonzero;stroke:none"
         d="m 1514.59,2574.93 v 90.98 c 0,14.62 -7.31,22.17 -22.87,22.17 -10.6,0 -19.8,-4.73 -24.27,-10.85 v -102.3 h -36.55 v 183.38 l 36.55,1.89 v -32.53 l -0.47,-18.85 0.7,-0.49 c 10.62,8.96 23.57,12.26 35.6,12.26 30.16,0 47.84,-20.27 47.84,-54.68 v -90.98 h -36.53" /><path
         id="path48"
         style="fill:#2b61ac;fill-opacity:1;fill-rule:nonzero;stroke:none"
         d="m 1589.57,2574.93 v 141.9 l 29.21,1.42 3.32,-23.82 h 0.69 c 8.96,17.21 22.88,25.7 39.14,25.7 6.37,0 11.78,-0.95 15.55,-2.12 l -2.36,-36.08 c -4.47,1.42 -9.89,2.37 -15.54,2.37 -19.1,0 -33.25,-13.91 -33.25,-37.71 v -71.66 h -36.76" /><path
         id="path50"
         style="fill:#2b61ac;fill-opacity:1;fill-rule:nonzero;stroke:none"
         d="m 1712.39,2574.93 v 141.9 l 37.48,1.65 v -143.55 z m 18.86,158.16 c -14.14,0 -20.98,4.01 -20.98,15.56 0,10.13 6.84,15.78 20.98,15.78 14.38,0 20.74,-5.42 20.74,-15.78 0,-10.38 -6.36,-15.56 -20.74,-15.56" /><path
         id="path52"
         style="fill:#2b61ac;fill-opacity:1;fill-rule:nonzero;stroke:none"
         d="m 1802.44,2574.93 v 115.73 h -17.91 v 27.1 h 17.91 v 6.14 c 0,21.45 14.85,39.12 49.02,39.12 8.03,0 16.97,-1.17 23.12,-3.06 l -2.14,-23.58 c -4.24,0.95 -8.95,1.42 -13.66,1.42 -14.37,0 -19.8,-5.66 -19.8,-14.85 v -5.19 h 30.41 v -27.1 h -30.41 v -115.73 h -36.54" /><path
         id="path54"
         style="fill:#2b61ac;fill-opacity:1;fill-rule:nonzero;stroke:none"
         d="m 1944.35,2690.43 v -73.08 c 0,-11.08 5.66,-15.78 16.96,-15.78 3.78,0 8.72,0.7 11.32,1.65 l 2.12,-26.63 c -4.96,-2.14 -14.38,-4.03 -24.51,-4.03 -28.53,0 -42.44,16.51 -42.44,43.63 v 74.24 h -16.02 v 27.33 h 17.67 l 6.12,32.31 28.78,2.59 v -34.9 h 31.8 v -27.33 h -31.8" /></g></g></svg>