<?xml version="1.0" encoding="UTF-8" standalone="no"?>
<svg
   xmlns:dc="http://purl.org/dc/elements/1.1/"
   xmlns:cc="http://creativecommons.org/ns#"
   xmlns:rdf="http://www.w3.org/1999/02/22-rdf-syntax-ns#"
   xmlns:svg="http://www.w3.org/2000/svg"
   xmlns="http://www.w3.org/2000/svg"
   viewBox="0 0 359.05334 472.44"
   height="472.44"
   width="359.05334"
   xml:space="preserve"
   id="svg2"
   version="1.1"><metadata
     id="metadata8"><rdf:RDF><cc:Work
         rdf:about=""><dc:format>image/svg+xml</dc:format><dc:type
           rdf:resource="http://purl.org/dc/dcmitype/StillImage" /></cc:Work></rdf:RDF></metadata><defs
     id="defs6" /><g
     transform="matrix(1.3333333,0,0,-1.3333333,0,472.44)"
     id="g10"><g
       transform="scale(0.1)"
       id="g12"><path
         id="path14"
         style="fill:#ffffff;fill-opacity:1;fill-rule:nonzero;stroke:none"
         d="M 2623.53,0 H 69.4063 C 31.1289,0 0,32.1484 0,71.6719 V 3471.66 c 0,39.51 31.1289,71.65 69.4063,71.65 H 2623.53 c 38.25,0 69.39,-32.14 69.39,-71.65 V 71.6719 C 2692.92,32.1484 2661.78,0 2623.53,0" /><path
         id="path16"
         style="fill:#a3a7b9;fill-opacity:1;fill-rule:nonzero;stroke:none"
         d="m 69.4063,3503.26 c -16.8868,0 -30.6133,-14.18 -30.6133,-31.6 V 71.6719 c 0,-17.4336 13.7265,-31.6133 30.6133,-31.6133 H 2623.53 c 16.87,0 30.59,14.1797 30.59,31.6133 V 3471.66 c 0,17.42 -13.72,31.6 -30.59,31.6 z M 2623.53,0 H 69.4063 C 31.1289,0 0,32.1484 0,71.6719 V 3471.66 c 0,39.51 31.1289,71.65 69.4063,71.65 H 2623.53 c 38.25,0 69.39,-32.14 69.39,-71.65 V 71.6719 C 2692.92,32.1484 2661.78,0 2623.53,0" /><path
         id="path18"
         style="fill:#a3a7b9;fill-opacity:1;fill-rule:nonzero;stroke:none"
         d="m 1252.81,1331.51 c -2.54,-3.37 -6.42,-5.08 -10.38,-5.92 -4.48,-0.55 -9.12,0.46 -12.94,3.34 l -206.68,155.26 -276.544,207.74 -206.684,155.27 c -3.82,2.87 -6.086,7.05 -6.809,11.5 -0.296,4.03 0.27,8.24 2.805,11.62 l 56.383,75.06 c 0,0 61.848,80.03 116.18,152.35 l 232.625,-174.75 251.984,-189.3 232.63,-174.75 c -54.33,-72.33 -116.19,-152.36 -116.19,-152.36 z m -388.771,946.41 205.491,-154.42 -0.04,-0.05 138.89,-104.3 138.86,-104.35 0.03,0.05 205.54,-154.35 c 7.84,-5.9 9.49,-17 3.68,-24.75 l -49.28,-67.88 -232.62,174.75 -251.98,189.3 -232.63,174.75 49.274,67.89 c 5.809,7.74 16.937,9.25 24.785,3.36 z m 712.241,-487.36 -345,259.08 -344.913,259.2 c -24.019,18.04 -58.183,13.23 -76.191,-10.74 L 506.504,1893.87 c -4.742,-6.32 -7.664,-13.34 -9.301,-20.6 -5.258,-20.63 1.926,-43.41 20.024,-57.01 L 722.738,1661.87 1000.48,1453.22 1206,1298.84 c 18.1,-13.61 41.98,-14.15 60.33,-3.36 6.52,3.59 12.45,8.36 17.2,14.67 l 303.67,404.23 c 18.01,23.98 13.11,58.13 -10.92,76.18" /><path
         id="path20"
         style="fill:#315eae;fill-opacity:1;fill-rule:nonzero;stroke:none"
         d="m 459.055,333 242.328,804.67 656.577,0.01 -56.6,-75.77 -81.44,-112.539 -9.27,-16.641 -8.55,-19.32 -8.76,-21.762 -9.15,-23.128 -8.76,-25.2 -8.63,-24.75 -8.17,-24.89 -8.04,-24.43 -7.19,-23.18 -6.66,-21.351 -5.87,-18.629 -4.48,-15.539 -3.44,-11.903 -2.85,-7.359 c 0,0 -0.54,-1.59 -1.94,-3.519 -1.63,-2.25 -11.55,-11.36 -19.66,-5.34 -7.78,5.781 -6.93,26.211 -6.15,35.922 2.41,29.769 4.81,59.558 7.22,89.339 0.84,10.438 -11.96,16.36 -20.22,11.598 -36.21,-20.848 -57.85,-46.16 -77.65,-75.059 1.84,6.782 3.68,13.551 5.52,20.329 8.33,30.703 20.14,62.453 24.63,93.98 2.55,18.02 -2,39.41 -23.08,42.91 -23.668,3.93 -39.157,-20.961 -50.77,-37.367 -35.059,-49.523 -55.801,-112.371 -99.297,-155.461 -16.387,-16.23 -34.574,-28.141 -58.183,-21.441 -27.282,7.73 -37.891,-24.418 10.316,-28.758 47.367,-4.274 82.644,45.828 104.199,80.859 15.645,25.43 29.32,51.981 44.57,77.629 7.321,12.328 14.958,24.5 23.364,36.121 3.586,4.949 10.414,18.231 16.832,20 8.419,2.321 6.269,-2.543 5.749,-9.152 -1.16,-14.969 -7.484,-30.399 -11.398,-44.828 -4.285,-15.781 -8.562,-31.563 -12.843,-47.34 -9.18,-33.832 -18.356,-67.652 -27.528,-101.473 -4.16,-15.34 16.067,-22.437 24.555,-10.347 33.764,48.109 50.564,88.918 92.204,121.101 -0.86,-10.57 -1.71,-21.152 -2.56,-31.711 -1.42,-17.492 -4.73,-35.972 -3.54,-53.492 1.95,-28.547 23.58,-48.359 50.65,-35.859 14.22,6.558 24.39,16.511 24.39,16.511 l 1.66,1.129 5.72,4.309 10.41,6.91 14.22,9.781 15.8,11.809 17.43,12.301 20.51,14.429 20.78,15.321 20.76,15.3 20.78,15.329 20.33,15.461 19,14.332 17.5,14.289 15.34,11.929 12.19,11.352 9.57,9.129 0.34,0.531 0.26,-0.211 64.69,76.488 165.51,221.321 h 293.7 L 2134.49,333 Z m 1179.275,839.5 520.36,695.85 53.07,69.96 c 0,0 1.04,1.49 1.6,2.27 3.77,5.21 3.04,12.05 -2.15,15.81 l -147.3,106.74 c -5.13,3.73 -11.9,2.28 -15.69,-2.88 -0.54,-0.74 -1.65,-2.12 -1.65,-2.12 l -19.94,-25.45 -642.65,-860.19 H 676.184 L 410.934,298.172 H 2181.76 L 1931.62,1172.5 h -293.29" /><path
         id="path22"
         style="fill:#315eae;fill-opacity:1;fill-rule:nonzero;stroke:none"
         d="m 2278.47,1905.43 -19.45,14.62 c -3.87,2.91 -9.41,2.12 -12.33,-1.75 l -247.36,-329.1 c -2.91,-3.87 -2.13,-9.43 1.75,-12.34 l 19.45,-14.61 c 3.87,-2.91 9.42,-2.12 12.33,1.74 l 247.36,329.11 c 2.91,3.87 2.13,9.42 -1.75,12.33" /><path
         id="path24"
         style="fill:#315eae;fill-opacity:1;fill-rule:nonzero;stroke:none"
         d="m 1284.94,504.199 h 492.09 l -10.44,39 H 803.281 l -10.437,-39 h 492.096" /><path
         id="path26"
         style="fill:#315eae;fill-opacity:1;fill-rule:nonzero;stroke:none"
         d="m 772.926,2850.73 c -44.16,0 -84.766,10.65 -117.778,28.41 l 11.172,73.61 c 33.508,-17.76 68.028,-27.93 105.578,-27.93 41.633,0 59.915,15.23 59.915,41.64 0,59.89 -175.137,34.51 -175.137,161.93 0,64.47 41.629,116.75 138.066,116.75 37.071,0 77.172,-7.62 106.606,-19.79 l -10.649,-72.09 c -31.484,10.15 -62.945,16.24 -91.879,16.24 -47.215,0 -59.91,-16.24 -59.91,-36.55 0,-59.39 175.133,-31.99 175.133,-160.91 0,-75.12 -52.293,-121.31 -141.117,-121.31" /><path
         id="path28"
         style="fill:#315eae;fill-opacity:1;fill-rule:nonzero;stroke:none"
         d="m 1244.06,2932.44 0.02,-74.62 H 985.195 v 380.71 h 258.865 l 0.02,-75.62 h -173.09 v -75.64 h 140.6 v -68.02 h -140.6 v -86.81 h 173.07" /><path
         id="path30"
         style="fill:#315eae;fill-opacity:1;fill-rule:nonzero;stroke:none"
         d="m 1456.33,3166.97 h -50.75 v -116.76 h 50.75 c 42.13,0 60.41,10.65 60.41,58.37 0,45.69 -16.25,58.39 -60.41,58.39 z m 0,-185.29 h -50.75 v -123.86 h -85.79 v 380.71 h 136.54 c 105.6,0 148.73,-41.61 148.73,-130.45 0,-80.2 -42.62,-126.4 -148.73,-126.4" /><path
         id="path32"
         style="fill:#315eae;fill-opacity:1;fill-rule:nonzero;stroke:none"
         d="m 1787.41,3133.97 -38.08,-130.47 h 96.96 l -36.55,130.47 -10.16,40.11 h -1.53 z m 79.18,-202.03 h -138.07 l -21.32,-74.12 h -90.35 l 131.46,380.71 h 102.04 l 132.99,-380.71 h -95.43 l -21.32,74.12" /><path
         id="path34"
         style="fill:#315eae;fill-opacity:1;fill-rule:nonzero;stroke:none"
         d="m 714.043,2719.82 h -23.219 v -94.78 h 23.426 c 24.277,0 33.988,7.82 33.988,48.34 0,37.57 -9.078,46.44 -34.195,46.44 z m 0.844,-126.44 h -59.739 v 158.31 h 59.321 c 50.23,0 71.129,-23.85 71.129,-78.52 0,-57.2 -23.848,-79.79 -70.711,-79.79" /><path
         id="path36"
         style="fill:#315eae;fill-opacity:1;fill-rule:nonzero;stroke:none"
         d="m 820.648,2593.38 v 127.07 l 33.567,1.47 v -128.54 z m 16.887,141.64 c -12.66,0 -18.785,3.58 -18.785,13.92 0,9.08 6.125,14.15 18.785,14.15 12.875,0 18.574,-4.86 18.574,-14.15 0,-9.29 -5.699,-13.92 -18.574,-13.92" /><path
         id="path38"
         style="fill:#315eae;fill-opacity:1;fill-rule:nonzero;stroke:none"
         d="m 893.266,2593.38 v 127.07 l 26.168,1.26 2.961,-21.31 h 0.632 c 8.02,15.4 20.477,23 35.036,23 5.703,0 10.554,-0.84 13.933,-1.89 l -2.113,-32.3 c -4.004,1.27 -8.863,2.11 -13.926,2.11 -17.094,0 -29.769,-12.45 -29.769,-33.77 v -64.17 h -32.922" /><path
         id="path40"
         style="fill:#315eae;fill-opacity:1;fill-rule:nonzero;stroke:none"
         d="m 1068.88,2670.43 c -0.41,18.78 -8.86,25.96 -22.58,25.96 -15.83,0 -21.95,-7.39 -23.43,-25.96 z m -79.142,-11.4 c 0,40.74 17.942,64.58 56.352,64.58 32.71,0 52.77,-18.99 52.77,-59.51 0,-4.86 -0.21,-10.98 -0.84,-15.41 h -74.51 c 1.69,-21.33 12.03,-29.35 33.98,-29.35 12.03,0 23.21,2.12 34.2,6.33 l 3.58,-26.38 c -10.76,-4.86 -25.53,-8.23 -41.79,-8.23 -44.11,0 -63.742,23.22 -63.742,67.97" /><path
         id="path42"
         style="fill:#315eae;fill-opacity:1;fill-rule:nonzero;stroke:none"
         d="m 1209.89,2690.05 c -6.54,2.32 -14.35,4.01 -21.74,4.01 -23.85,0 -31.66,-9.92 -31.66,-36.93 0,-27.44 11.19,-38.21 31.03,-38.21 8.44,0 16.46,1.69 23.21,4.86 l 2.33,-25.54 c -7.6,-4.65 -18.99,-7.39 -32.72,-7.39 -37.79,0 -57.83,21.53 -57.83,66.28 0,42.42 17.52,66.27 58.47,66.27 10.76,0 22.79,-2.32 30.81,-5.49 l -1.9,-27.86" /><path
         id="path44"
         style="fill:#315eae;fill-opacity:1;fill-rule:nonzero;stroke:none"
         d="m 1279.56,2696.81 v -65.43 c 0,-9.92 5.06,-14.15 15.2,-14.15 3.37,0 7.81,0.64 10.13,1.48 l 1.89,-23.85 c -4.43,-1.9 -12.87,-3.59 -21.95,-3.59 -25.54,0 -37.98,14.77 -37.98,39.05 v 66.49 h -14.36 v 24.48 h 15.83 l 5.49,28.92 25.75,2.33 v -31.25 h 28.5 v -24.48 h -28.5" /><path
         id="path46"
         style="fill:#315eae;fill-opacity:1;fill-rule:nonzero;stroke:none"
         d="m 1461.09,2719.82 h -23.21 v -94.78 h 23.42 c 24.28,0 33.99,7.82 33.99,48.34 0,37.57 -9.08,46.44 -34.2,46.44 z m 0.85,-126.44 h -59.74 v 158.31 h 59.31 c 50.23,0 71.13,-23.85 71.13,-78.52 0,-57.2 -23.85,-79.79 -70.7,-79.79" /><path
         id="path48"
         style="fill:#315eae;fill-opacity:1;fill-rule:nonzero;stroke:none"
         d="m 1637.35,2670.43 c -0.42,18.78 -8.87,25.96 -22.58,25.96 -15.84,0 -21.95,-7.39 -23.44,-25.96 z m -79.15,-11.4 c 0,40.74 17.94,64.58 56.36,64.58 32.71,0 52.76,-18.99 52.76,-59.51 0,-4.86 -0.21,-10.98 -0.84,-15.41 h -74.51 c 1.69,-21.33 12.03,-29.35 33.98,-29.35 12.03,0 23.22,2.12 34.2,6.33 l 3.59,-26.38 c -10.77,-4.86 -25.54,-8.23 -41.8,-8.23 -44.11,0 -63.74,23.22 -63.74,67.97" /><path
         id="path50"
         style="fill:#315eae;fill-opacity:1;fill-rule:nonzero;stroke:none"
         d="m 1752.61,2694.91 c -9.49,0 -17.52,-4.01 -22.17,-10.77 v -55.93 c 4.02,-6.12 11.41,-10.98 22.39,-10.98 14.76,0 23.63,6.75 23.63,39.9 0,31.87 -8.23,37.78 -23.85,37.78 z m 5.49,-104.06 c -14.35,0 -26.17,5.27 -33.98,13.08 l -4.22,-10.55 h -22.16 v 164.43 l 32.7,1.48 v -29.77 l -0.41,-16.88 0.63,-0.42 c 8.65,7.81 19.84,11.39 31.45,11.39 29.56,0 48.13,-18.99 48.13,-65.85 0,-46.86 -19.42,-66.91 -52.14,-66.91" /><path
         id="path52"
         style="fill:#315eae;fill-opacity:1;fill-rule:nonzero;stroke:none"
         d="m 1843.6,2593.38 v 127.07 l 33.56,1.47 v -128.54 z m 16.88,141.64 c -12.66,0 -18.78,3.58 -18.78,13.92 0,9.08 6.12,14.15 18.78,14.15 12.88,0 18.58,-4.86 18.58,-14.15 0,-9.29 -5.7,-13.92 -18.58,-13.92" /><path
         id="path54"
         style="fill:#315eae;fill-opacity:1;fill-rule:nonzero;stroke:none"
         d="m 1954.84,2696.81 v -65.43 c 0,-9.92 5.07,-14.15 15.19,-14.15 3.38,0 7.82,0.64 10.14,1.48 l 1.9,-23.85 c -4.44,-1.9 -12.88,-3.59 -21.96,-3.59 -25.53,0 -37.99,14.77 -37.99,39.05 v 66.49 h -14.35 v 24.48 h 15.83 l 5.49,28.92 25.75,2.33 v -31.25 h 28.5 v -24.48 h -28.5" /></g></g></svg>